<svg width="35" height="35" viewBox="0 0 35 35" fill="none" xmlns="http://www.w3.org/2000/svg">
<path fill-rule="evenodd" clip-rule="evenodd" d="M17.8932 0.103667C17.4831 0.254331 17.1748 0.533237 16.9812 0.929106C16.8256 1.24711 16.8051 1.361 16.8323 1.75967C16.8496 2.01376 16.8841 2.26779 16.909 2.32418C16.9412 2.39699 16.1853 3.19542 14.3017 5.07832L11.6492 7.72991L11.269 7.55586C10.162 7.04905 8.93451 7.25816 8.09636 8.09638C7.25813 8.93454 7.04902 10.162 7.55584 11.269L7.72988 11.6492L5.07829 14.3018C3.2008 16.1799 2.39676 16.9412 2.32416 16.9095C2.26776 16.8849 2.02803 16.8501 1.79143 16.8324C1.24723 16.7915 0.857714 16.9317 0.48789 17.3015C-0.300841 18.0902 -0.090499 19.426 0.900097 19.9197C2.19954 20.5672 3.61772 19.4496 3.28044 18.0438L3.19547 17.6894L4.722 16.1617C5.56159 15.3215 6.25756 14.643 6.26856 14.654C6.27957 14.665 6.16377 15.0051 6.01119 15.4099C5.6711 16.3125 5.38269 17.3958 5.18185 18.5253C4.97637 19.6808 4.95921 22.2572 5.14925 23.4131C5.54614 25.827 6.39646 28.0413 7.6432 29.9072L8.19131 30.7275L7.72633 31.206C7.20249 31.7451 7.08108 31.9393 7.13495 32.1523C7.15546 32.2334 7.78696 32.9115 8.5383 33.6592C9.86727 34.9817 9.91048 35.0174 10.1304 34.9745C10.307 34.9399 10.6438 34.6423 11.6723 33.6115C12.8678 32.4134 12.9882 32.2713 12.9882 32.0589C12.9882 31.8461 12.8663 31.7031 11.6362 30.4731C10.0254 28.8622 10.0944 28.8912 9.40639 29.5348L8.96404 29.9486L8.62765 29.4494C7.33996 27.5385 6.49634 25.3023 6.18298 22.9687C6.05891 22.0448 6.05925 20.0606 6.18366 19.1406C6.49012 16.8738 7.17091 14.9729 8.35141 13.0881L8.69559 12.5385L9.18416 12.7031C9.59493 12.8413 9.76221 12.8621 10.234 12.8331C12.0569 12.7212 13.2539 10.9878 12.7206 9.2321C12.6393 8.96448 12.5902 8.71729 12.6115 8.68277C12.6734 8.58276 13.7134 7.97511 14.4579 7.60406C18.3868 5.6459 23.2489 5.57002 27.2412 7.40452C28.2571 7.87134 29.9413 8.8724 29.9413 9.00939C29.9413 9.02846 29.7568 9.21693 29.5312 9.4283C29.1807 9.75663 29.121 9.84747 29.121 10.0526C29.121 10.2736 29.2283 10.3993 30.475 11.6404C31.7011 12.8608 31.851 12.9882 32.0608 12.9882C32.2707 12.9882 32.4178 12.8634 33.6115 11.6723C34.6423 10.6438 34.9399 10.3071 34.9744 10.1304C35.0174 9.91057 34.9818 9.86744 33.6663 8.54598C32.9226 7.79881 32.241 7.16922 32.1517 7.1468C31.924 7.08965 31.754 7.19383 31.206 7.72635L30.7275 8.19133L29.9072 7.64323C28.3769 6.62078 26.2614 5.72664 24.4517 5.33733C22.2772 4.86955 19.709 4.88069 17.5486 5.3672C16.9285 5.50693 15.4193 5.98141 14.7314 6.25307C14.6562 6.28281 15.2868 5.60947 16.1328 4.75689L17.6708 3.20664L17.9101 3.26091C18.32 3.35388 18.8885 3.30808 19.1784 3.15878C19.7749 2.85144 20.0976 2.32405 20.0976 1.65618C20.0976 0.508901 18.9639 -0.289537 17.8932 0.103667ZM18.8428 1.25573C19.2329 1.59123 18.9764 2.25582 18.457 2.25582C17.9375 2.25582 17.6811 1.59123 18.0712 1.25573C18.3115 1.04901 18.6024 1.04901 18.8428 1.25573ZM10.8961 8.57127C11.4806 8.91382 11.7578 9.39835 11.7578 10.0779C11.7578 11.6566 9.80568 12.3859 8.7818 11.1896C7.95861 10.228 8.39461 8.80739 9.6382 8.39962C9.95019 8.29729 10.5738 8.3824 10.8961 8.57127ZM32.899 9.28078L33.7012 10.0851L32.8808 10.9033L32.0605 11.7215L31.2402 10.9033L30.4198 10.0851L31.222 9.28078C31.6632 8.83842 32.0405 8.47653 32.0605 8.47653C32.0804 8.47653 32.4578 8.83842 32.899 9.28078ZM12.8336 12.8352C11.9243 13.7459 11.7578 13.9443 11.758 14.1169C11.7584 14.4125 17.4621 28.6494 17.6162 28.7393C17.6838 28.7788 19.0732 29.3253 20.7037 29.9538C22.3341 30.5823 23.6766 31.1058 23.6868 31.1171C23.6971 31.1284 24.1247 31.9768 24.6371 33.0025C25.6079 34.9454 25.6966 35.0689 26.0569 34.9767C26.1443 34.9543 28.1922 32.958 30.6079 30.5405C33.8686 27.2772 34.9999 26.1045 34.9999 25.9879C34.9999 25.9015 34.9678 25.7707 34.9285 25.6973C34.8868 25.6194 34.0822 25.1767 32.9974 24.6346C31.9745 24.1236 31.1279 23.6966 31.1161 23.6858C31.1042 23.675 30.5789 22.3231 29.9487 20.6817C29.3185 19.0402 28.7548 17.641 28.696 17.5724C28.5571 17.4101 14.3818 11.7578 14.1137 11.7578C13.9411 11.7578 13.7428 11.9246 12.8336 12.8352ZM21.1479 15.6402L27.9063 18.3545L28.957 21.0888C29.5348 22.5927 30.0081 23.8538 30.0087 23.8913C30.01 23.9806 23.9812 30.0101 23.8918 30.0087C23.8541 30.0081 22.5927 29.5348 21.0888 28.957L18.3544 27.9064L15.6231 21.0956L12.8917 14.2849L13.0434 14.1331L13.1951 13.9814L16.7212 17.5076L20.2473 21.0336L20.0596 21.403C19.0576 23.3754 20.2208 25.6908 22.394 26.0497C24.1058 26.3323 25.7825 25.0945 26.0544 23.3472C26.3012 21.7612 25.2625 20.2034 23.6841 19.7923C22.9145 19.5918 22.1467 19.6819 21.403 20.0596L21.0336 20.2473L17.51 16.7237C14.0176 13.2313 13.9874 13.1988 14.1131 13.06C14.1828 12.9829 14.2736 12.9213 14.3147 12.923C14.3559 12.9247 17.4308 14.1474 21.1479 15.6402ZM2.10199 18.0904C2.4187 18.4387 2.17548 19.0039 1.70892 19.0039C1.24422 19.0039 0.967773 18.3814 1.27806 18.0336C1.48635 17.8001 1.86171 17.826 2.10199 18.0904ZM23.7977 20.9719C24.2158 21.177 24.5697 21.5293 24.7946 21.9647C25.04 22.4395 25.0601 23.248 24.8386 23.729C24.63 24.1821 24.246 24.5763 23.8 24.7953C23.2772 25.052 22.4877 25.0639 21.9955 24.8223C21.2369 24.4502 20.8424 23.8487 20.7953 22.9928C20.7687 22.5065 20.7862 22.389 20.9337 22.0668C21.1703 21.5501 21.4729 21.2325 21.9646 20.9846C22.3513 20.7898 22.4346 20.7734 22.9345 20.7941C23.3297 20.8105 23.5692 20.8598 23.7977 20.9719ZM32.1466 25.4031C32.87 25.7645 33.4759 26.0734 33.4931 26.0895C33.5254 26.1197 26.1752 33.4961 26.1127 33.4961C26.0933 33.4961 25.7754 32.8911 25.4062 32.1517L24.7352 30.8073L27.7652 27.7767C29.4317 26.1098 30.8034 24.7461 30.8133 24.7461C30.8233 24.7461 31.4232 25.0417 32.1466 25.4031ZM10.8694 32.8456L10.0488 33.6663L9.2463 32.8637L8.44376 32.0612L9.26229 31.2405L10.0808 30.4198L10.8855 31.2224L11.6901 32.0249L10.8694 32.8456Z" fill="#0D5EF4"/>
</svg>
