<svg width="33" height="33" viewBox="0 0 33 33" fill="none" xmlns="http://www.w3.org/2000/svg">
<path fill-rule="evenodd" clip-rule="evenodd" d="M2.16168 0.198282C1.11065 0.484297 0.381942 1.25799 0.160663 2.32275C0.113153 2.55121 0.0949692 3.93433 0.107958 6.32178C0.12785 9.95986 0.128397 9.97292 0.286717 10.3648C0.585995 11.106 1.12214 11.6348 1.87942 11.9357C2.19463 12.061 2.43723 12.0873 3.58007 12.1204L4.91307 12.1591L6.70067 13.4392C7.68382 14.1433 8.56682 14.7551 8.66286 14.7989C8.90089 14.9073 9.21643 14.7729 9.32198 14.5182C9.38822 14.3582 9.36607 14.1484 9.19114 13.2817C9.07527 12.7076 8.98046 12.2144 8.98046 12.1858C8.98046 12.1571 9.9418 12.1234 11.1167 12.1109C13.1592 12.0891 13.2701 12.0812 13.6461 11.9307C14.404 11.6272 14.9808 11.0244 15.2492 10.2552C15.3617 9.93286 15.3721 9.58423 15.3721 6.10932C15.3721 2.6344 15.3617 2.28577 15.2492 1.96339C14.9811 1.1951 14.4059 0.593399 13.6461 0.28667L13.2529 0.127872L7.88671 0.114268C3.41806 0.102921 2.46048 0.117003 2.16168 0.198282ZM13.3995 1.33927C13.6744 1.48973 14.0102 1.82558 14.1607 2.10045C14.2679 2.29644 14.2783 2.64938 14.2783 6.10932C14.2783 10.3085 14.302 10.0741 13.8287 10.5474C13.3727 11.0034 13.4372 10.9936 10.6553 11.0313C9.26415 11.0501 8.07497 11.0907 8.01263 11.1216C7.76065 11.2463 7.72907 11.5211 7.88117 12.2669C7.95978 12.6521 8.01058 12.9809 7.99417 12.9973C7.97769 13.0137 7.38536 12.6142 6.67791 12.1094C5.97046 11.6045 5.34545 11.1631 5.28905 11.1284C5.23265 11.0937 4.54052 11.0498 3.75097 11.0308C2.18205 10.993 2.09715 10.9733 1.67127 10.5474C1.20178 10.0779 1.22386 10.2751 1.20082 6.34857C1.18933 4.3935 1.19856 2.66551 1.22133 2.50856C1.26788 2.18706 1.53537 1.75223 1.82679 1.52418C2.2593 1.18573 2.16366 1.19079 7.85253 1.20672C12.7503 1.22039 13.2021 1.23119 13.3995 1.33927ZM4.81054 2.34511C4.25047 2.51607 3.83744 2.8565 3.58943 3.35156C3.2838 3.96147 3.31586 4.5726 3.68555 5.1866L3.92186 5.57898V7.24231C3.92186 9.00673 3.9488 9.18187 4.24021 9.31469C4.47086 9.41976 8.84162 9.41976 9.07226 9.31469C9.24849 9.23437 9.39061 8.99306 9.39061 8.7741C9.39061 8.65878 9.48461 8.68872 10.1527 9.01657C10.9737 9.41955 11.0089 9.42898 11.2598 9.31469C11.5521 9.18146 11.5781 9.00857 11.5781 7.20307C11.5781 5.39756 11.5521 5.22468 11.2598 5.09145C11.0089 4.97715 10.9737 4.98658 10.1527 5.38956C9.65202 5.63531 9.39061 5.73191 9.39061 5.67127C9.39061 5.62055 9.49691 5.40241 9.62693 5.1866C10.0053 4.55824 10.0297 3.95839 9.70288 3.318C9.51017 2.94031 9.25649 2.69073 8.86712 2.49564C8.25906 2.19096 7.64601 2.22206 7.03755 2.58847L6.65063 2.8215L6.33105 2.61882C5.83155 2.30204 5.27798 2.20244 4.81054 2.34511ZM16.5 2.82499V3.37494H19.6195C21.8689 3.37494 22.8175 3.39812 23.0204 3.45807C23.3231 3.54755 24.0195 4.17481 24.0195 4.35802C24.0195 4.44812 23.6758 4.46411 21.3364 4.48257C18.7148 4.50321 18.6443 4.50738 18.2601 4.66208C17.501 4.96778 16.9252 5.56982 16.657 6.33839C16.5445 6.66077 16.5342 7.0094 16.5342 10.4843C16.5342 13.9592 16.5445 14.3079 16.657 14.6302C16.9253 15.3991 17.5015 16.0015 18.2601 16.3061C18.6407 16.459 18.7307 16.4648 21.063 16.486C22.3883 16.498 23.4726 16.5315 23.4726 16.5604C23.4726 16.5893 23.3778 17.0826 23.262 17.6567C23.0245 18.8331 23.0438 19.0167 23.421 19.1729C23.6056 19.2494 23.663 19.2425 23.8937 19.1161L24.1562 18.9722V20.0704V21.1685L23.249 20.2825C22.0847 19.1454 21.8076 18.9951 20.875 18.9951C20.3011 18.9951 20.18 19.0175 19.8333 19.1877C19.3333 19.4332 18.8863 19.8802 18.6409 20.3801C18.4707 20.7268 18.4482 20.8479 18.4482 21.4218C18.4482 22.4571 18.5087 22.5484 20.597 24.6689L22.3473 26.4462L22.1068 26.938L21.8662 27.4298L14.8028 27.4336L7.73932 27.4374L7.76428 29.0952C7.78731 30.6288 7.80092 30.7823 7.94543 31.1461C8.23746 31.8809 8.76895 32.4074 9.53567 32.7215L9.90331 32.872L19.7812 32.8903C26.8635 32.9034 29.7107 32.8872 29.8413 32.8331C29.9415 32.7917 30.058 32.6742 30.1003 32.5722C30.1557 32.4385 30.1712 30.8025 30.1559 26.7163C30.1349 21.1022 30.1332 21.0404 29.9831 20.499C29.7355 19.6063 29.298 18.8235 28.3975 17.6621C27.9457 17.0793 27.5756 16.5819 27.5751 16.5567C27.5746 16.5315 28.2894 16.4995 29.1636 16.4857C30.6243 16.4623 30.7848 16.4476 31.1461 16.3042C31.902 16.0043 32.4806 15.4002 32.7492 14.6302C32.8617 14.3079 32.8721 13.9592 32.8721 10.4843C32.8721 7.0094 32.8617 6.66077 32.7492 6.33839C32.481 5.56989 31.9055 4.96799 31.1461 4.66194C30.7608 4.50663 30.6972 4.50308 27.9716 4.48257L25.1903 4.46165L25.0802 4.13024C24.8357 3.39401 24.2452 2.77912 23.4899 2.47417C23.1001 2.31674 23.0681 2.31517 19.7983 2.29521L16.5 2.27504V2.82499ZM5.69647 3.48678C6.23843 3.80684 6.23843 4.58367 5.69647 4.90373C5.1673 5.21634 4.46874 4.81322 4.46874 4.19525C4.46874 3.5764 5.16655 3.17369 5.69647 3.48678ZM8.43085 3.48678C8.9728 3.80684 8.9728 4.58367 8.43085 4.90373C7.72627 5.31997 6.89809 4.49351 7.31406 3.78927C7.54498 3.39832 8.04975 3.2616 8.43085 3.48678ZM30.6532 5.63046C31.185 5.77818 31.7028 6.35507 31.7779 6.88356C31.8002 7.04051 31.8094 8.42027 31.7983 9.94981L31.7783 12.7307L30.7187 12.0129C29.6057 11.2588 29.2187 11.0312 29.0499 11.0312C28.9938 11.0312 28.2483 11.4963 27.3933 12.0647C26.0093 12.985 25.8239 13.089 25.7033 13.0138C25.6288 12.9672 24.7188 12.2916 23.6812 11.5124C22.6436 10.7331 21.7233 10.0573 21.636 10.0107C21.5489 9.96403 21.41 9.94271 21.3277 9.96342C21.2452 9.98413 20.3791 10.6 19.4029 11.3321L17.6279 12.6631L17.6079 9.91598C17.5968 8.4051 17.606 7.04051 17.6283 6.88356C17.7004 6.37633 18.1562 5.84374 18.6774 5.65753C18.9894 5.54604 30.2577 5.52061 30.6532 5.63046ZM8.29686 7.20307V8.29682H6.65624H5.01561V7.20307V6.10932H6.65624H8.29686V7.20307ZM10.4844 7.20382V7.95652L9.93749 7.68158C9.43799 7.43043 9.39061 7.389 9.39061 7.20314C9.39061 7.01822 9.43888 6.97495 9.9204 6.72879C10.2117 6.57983 10.4579 6.45638 10.4673 6.45453C10.4766 6.45262 10.4844 6.78983 10.4844 7.20382ZM25.1338 6.77931C24.3912 7.04461 23.918 7.54363 23.7009 8.29032C23.4166 9.26848 23.9368 10.3576 24.9082 10.818C25.2094 10.9606 25.3862 10.9961 25.7969 10.9961C26.6816 10.9961 27.3948 10.5416 27.7707 9.73824C28.1395 8.94972 27.956 7.93116 27.3327 7.30786C26.7767 6.7519 25.8404 6.52679 25.1338 6.77931ZM26.2295 7.84318C26.9318 8.13665 27.1031 9.05745 26.5569 9.60371C26.1134 10.0471 25.4803 10.0471 25.0368 9.60371C24.1915 8.75831 25.1243 7.38142 26.2295 7.84318ZM23.4366 12.6624C24.5324 13.4843 25.4991 14.1945 25.585 14.2405C25.6709 14.2865 25.8107 14.3066 25.8958 14.2853C25.9808 14.264 26.7052 13.8126 27.5058 13.2823C28.3063 12.752 29.0002 12.3032 29.0477 12.2849C29.0953 12.2667 29.7352 12.6532 30.4697 13.1438L31.8052 14.0359L31.7043 14.332C31.6488 14.4948 31.4912 14.7437 31.3539 14.885C30.8882 15.3645 30.8708 15.3683 28.9756 15.4062C28.0356 15.425 27.2204 15.4687 27.1641 15.5034C27.1077 15.5381 26.4826 15.9795 25.7752 16.4844C25.0677 16.9892 24.4754 17.3887 24.4589 17.3723C24.4425 17.3559 24.4933 17.0271 24.5719 16.6419C24.7319 15.8574 24.6946 15.6233 24.3876 15.4834C24.2712 15.4303 23.4012 15.4061 21.6066 15.4058C19.9507 15.4056 18.898 15.3784 18.7297 15.3317C18.3603 15.2292 17.834 14.7197 17.7043 14.3391L17.6002 14.0338L17.9901 13.732C18.7316 13.158 21.3878 11.1713 21.4161 11.1696C21.4316 11.1687 22.341 11.8404 23.4366 12.6624ZM10.6583 15.55C10.5108 15.6291 9.66521 16.1136 8.77941 16.6267L7.16893 17.5595L4.708 17.5952C2.34297 17.6295 2.23175 17.637 1.85386 17.7882C1.09623 18.0911 0.519208 18.6941 0.25076 19.4634C0.142411 19.7737 0.127918 20.0739 0.127918 22.0029C0.127918 24.1332 0.132088 24.2006 0.286717 24.5836C0.593446 25.3433 1.19515 25.9186 1.96344 26.1867C2.28944 26.3005 2.67567 26.3095 7.20311 26.3095C11.7306 26.3095 12.1168 26.3005 12.4428 26.1867C13.2111 25.9186 13.8128 25.3433 14.1195 24.5836C14.2741 24.2006 14.2783 24.1332 14.2783 22.0029C14.2783 20.0739 14.2638 19.7737 14.1555 19.4634C13.7779 18.3814 12.8659 17.7042 11.6621 17.6119C11.2483 17.5801 11.1705 17.5554 11.1975 17.4641C11.2153 17.4038 11.31 17.0343 11.4079 16.6431C11.6061 15.8511 11.578 15.6271 11.2626 15.4834C11.0304 15.3776 10.967 15.3846 10.6583 15.55ZM10.0631 17.6379C9.9085 18.2411 9.96114 18.4906 10.2681 18.6096C10.3682 18.6485 10.8193 18.6907 11.2705 18.7035C12.1664 18.7289 12.3518 18.7881 12.735 19.1712C13.1897 19.6259 13.1846 19.594 13.1846 21.9687C13.1846 24.3434 13.1897 24.3114 12.735 24.7662C12.2558 25.2454 12.6203 25.2158 7.20311 25.2158C1.78591 25.2158 2.15047 25.2454 1.67127 24.7662C1.21654 24.3114 1.22167 24.3434 1.22167 21.9687C1.22167 19.594 1.21654 19.6259 1.67127 19.1712C2.12784 18.7146 2.05893 18.725 4.8789 18.6874L7.44237 18.6533L8.7412 17.8903C9.45556 17.4707 10.0754 17.1246 10.1185 17.1213C10.1722 17.1171 10.1547 17.2799 10.0631 17.6379ZM27.5073 18.2712C28.3815 19.4075 28.5941 19.758 28.8454 20.4775L29.0439 21.0458L29.0634 26.4291L29.0828 31.8124H26.2104H23.3378L23.1689 31.5561C22.8068 31.0069 22.6342 30.3995 22.6009 29.5566C22.557 28.4468 22.7098 27.9122 23.3864 26.8078C23.574 26.5015 23.6152 26.3763 23.578 26.2267C23.5468 26.1019 22.8497 25.3515 21.5595 24.0537C19.4098 21.8915 19.4527 21.9511 19.5228 21.2217C19.5792 20.6349 20.0854 20.1263 20.669 20.0701C21.4195 19.998 21.2927 19.9016 24.0027 22.6049L26.481 25.0771L26.873 24.685L27.265 24.293L26.2575 23.2839L25.25 22.2747V20.2215V18.1684L25.9477 17.6754C26.4964 17.2877 26.6621 17.2008 26.7237 17.2684C26.7667 17.3157 27.1193 17.767 27.5073 18.2712ZM2.28124 20.8749V21.4218H5.28905H8.29686V20.8749V20.3281H5.28905H2.28124V20.8749ZM9.39061 20.8749V21.4218H10.7578H12.125V20.8749V20.3281H10.7578H9.39061V20.8749ZM2.28124 23.0624V23.6093H7.20311H12.125V23.0624V22.5156H7.20311H2.28124V23.0624ZM21.5042 29.0808C21.4645 29.7661 21.5826 30.5223 21.8394 31.2274C21.9481 31.5259 22.0371 31.7804 22.0371 31.7928C22.0371 31.8052 19.3224 31.807 16.0044 31.7968C9.31713 31.7763 9.80966 31.8108 9.32752 31.3287C8.9188 30.9199 8.88161 30.7842 8.85557 29.6079L8.83171 28.5312H15.1839H21.536L21.5042 29.0808ZM15.9531 30.1718V30.7187H16.5H17.0469V30.1718V29.6249H16.5H15.9531V30.1718Z" fill="#0D5EF4"/>
</svg>
