<svg width="35" height="35" viewBox="0 0 35 35" fill="none" xmlns="http://www.w3.org/2000/svg">
<path fill-rule="evenodd" clip-rule="evenodd" d="M14.5884 0.617544C11.8508 0.84272 9.04373 1.73467 6.68595 3.12859C6.08288 3.48515 5.94343 3.69392 6.08309 4.03114C6.16942 4.23957 6.32439 4.31729 7.24608 4.61438C8.01027 4.86075 8.37271 5.135 8.57547 5.62042C8.71588 5.95648 8.70822 6.23286 8.54402 6.75663C8.37969 7.28087 8.37107 7.77983 8.5177 8.27366C8.57793 8.47648 8.94645 9.28045 9.33672 10.0602C9.72691 10.84 10.0237 11.4908 9.99625 11.5064C9.96877 11.522 9.83636 11.5546 9.70203 11.5788C9.35429 11.6414 8.85916 11.9762 8.6143 12.3142C8.1809 12.9125 8.1055 13.6529 8.40833 14.3375C8.59789 14.7661 8.67021 14.8377 9.94628 15.8602L11.04 16.7368L11.2701 17.4089C11.3967 17.7786 11.6659 18.4317 11.8683 18.8601C12.0707 19.2886 12.2363 19.6484 12.2363 19.6596C12.2363 19.6708 11.075 19.6897 9.65575 19.7014C7.14252 19.7223 7.06493 19.727 6.68198 19.8811C5.94247 20.1786 5.41453 20.7132 5.10972 21.4732C4.97963 21.7976 4.95919 22.0042 4.93595 23.2271L4.90963 24.6133L4.55689 24.7899C3.50197 25.3178 2.40973 26.2656 1.78062 27.1989C1.36021 27.8228 0.975 28.6819 0.771973 29.4489C0.608799 30.065 0.593965 30.2478 0.563818 32.0106C0.528887 34.054 0.55165 34.2344 0.862344 34.3759C1.10242 34.4854 33.8947 34.4867 34.1348 34.3773C34.4245 34.2452 34.4531 34.0658 34.4527 32.3821C34.4522 30.156 34.2821 29.1792 33.6913 28.0074C33.0183 26.6726 31.8395 25.493 30.5114 24.8254L30.0904 24.6136L30.064 23.2273C30.0408 22.0042 30.0204 21.7976 29.8903 21.4732C29.5855 20.7132 29.0575 20.1786 28.318 19.8811C27.9351 19.727 27.8575 19.7223 25.3442 19.7014C23.925 19.6897 22.7637 19.6703 22.7637 19.6584C22.7637 19.6465 22.9179 19.3139 23.1064 18.9193C23.2949 18.5247 23.5664 17.8727 23.7098 17.4703L23.9706 16.7387L24.9565 15.9524C26.2157 14.948 26.4147 14.7519 26.5913 14.3415C27.1101 13.1356 26.4464 11.8135 25.1914 11.553L24.8336 11.4787L25.4751 9.7213C26.2591 7.57379 26.3109 7.3871 26.362 6.52837C26.5321 3.66856 24.5327 1.14466 21.7068 0.65186C21.2217 0.567231 20.5341 0.548843 18.1575 0.556704C16.5364 0.562036 14.9303 0.589448 14.5884 0.617544ZM21.7021 1.74397C22.6705 1.94912 23.7539 2.62116 24.3153 3.36484C24.6988 3.87309 24.8406 4.13067 25.0594 4.71685C25.2344 5.18559 25.2511 5.31158 25.2547 6.18658L25.2588 7.14361L24.9599 7.9981C24.7955 8.46807 24.6394 8.89286 24.6131 8.94207C24.586 8.9928 24.5011 8.77186 24.4173 8.43245C24.2134 7.60647 23.9375 7.06117 23.0309 5.69261C22.236 4.49249 22.0528 4.30943 21.7448 4.40718C21.6675 4.43165 21.2731 4.71473 20.8681 5.03622C19.9177 5.79078 19.6257 5.99018 19.19 6.18227C18.7084 6.39453 17.9371 6.56255 17.4442 6.56255C16.873 6.56255 15.9578 6.73414 15.3694 6.95159C15.0071 7.08543 14.2758 7.53086 12.7312 8.55865C11.5559 9.34068 10.5794 9.98052 10.5612 9.98052C10.5431 9.98052 10.2973 9.51951 10.015 8.95595C9.43174 7.79118 9.41417 7.68775 9.64481 6.77563C9.77046 6.27859 9.77825 6.15664 9.70941 5.76131C9.62759 5.29148 9.45881 4.89985 9.18072 4.5346C8.98351 4.27552 8.37996 3.85279 8.11767 3.79003C8.01424 3.76522 7.92968 3.72222 7.92968 3.69433C7.92968 3.66651 8.23032 3.50231 8.59775 3.3295C10.5445 2.41375 12.3823 1.91876 14.6973 1.68655C14.8288 1.67335 16.3516 1.65818 18.081 1.65278C20.622 1.64492 21.317 1.66242 21.7021 1.74397ZM22.3375 6.57964C23.3589 8.14507 23.4569 8.45057 23.4993 10.2027L23.5304 11.4844H21.0311C19.345 11.4844 18.4776 11.5091 18.3652 11.5603C18.1512 11.6579 18.0469 11.8916 18.0469 12.2738V12.5782H17.5H16.9531V12.2738C16.9531 11.8916 16.8488 11.6579 16.6348 11.5603C16.5224 11.5091 15.657 11.4844 13.9763 11.4844H11.4844V11.0823V10.6802L13.2788 9.48478C14.2658 8.8273 15.227 8.21186 15.415 8.11718C15.9818 7.83164 16.4641 7.71913 17.4 7.65398C18.9423 7.54665 19.8557 7.19809 21.0547 6.25931C21.4119 5.97965 21.7236 5.74887 21.7476 5.74655C21.7715 5.74415 22.037 6.11911 22.3375 6.57964ZM10.421 13.108C10.4441 13.3993 10.5016 13.9376 10.5489 14.3043C10.5961 14.6709 10.6183 14.9705 10.5981 14.9703C10.5032 14.969 9.52218 14.1349 9.41684 13.9659C9.07265 13.4135 9.54146 12.5782 10.1957 12.5782C10.3751 12.5782 10.3798 12.5894 10.421 13.108ZM12.59 13.6207C12.616 14.7432 12.6638 14.9224 13.0473 15.3359C13.4388 15.7578 13.6754 15.8252 14.7656 15.8252C15.6511 15.8252 15.786 15.8095 16.0303 15.6777C16.6088 15.3655 16.8917 14.8953 16.939 14.1675L16.9711 13.6719H17.5H18.0289L18.061 14.1675C18.1083 14.8953 18.3912 15.3655 18.9697 15.6777C19.214 15.8095 19.3489 15.8252 20.2344 15.8252C21.3246 15.8252 21.5612 15.7578 21.9526 15.3359C22.3362 14.9224 22.384 14.7432 22.41 13.6207L22.4341 12.5782H22.9843H23.5343L23.4877 13.2447C23.3488 15.2254 22.8665 16.9846 21.9693 18.7818L21.5172 19.6876H17.5H13.4828L13.0307 18.7818C12.1335 16.9846 11.6512 15.2254 11.5123 13.2447L11.4656 12.5782H12.0157H12.5659L12.59 13.6207ZM15.8594 13.5041C15.8594 14.3961 15.8532 14.4363 15.6915 14.5979C15.5336 14.7558 15.4794 14.7657 14.7656 14.7657C14.0518 14.7657 13.9977 14.7558 13.8397 14.5979C13.678 14.4363 13.6719 14.3961 13.6719 13.5041V12.5782H14.7656H15.8594V13.5041ZM21.3281 13.5041C21.3281 14.3961 21.322 14.4363 21.1603 14.5979C21.0023 14.7558 20.9482 14.7657 20.2344 14.7657C19.5206 14.7657 19.4664 14.7558 19.3084 14.5979C19.1468 14.4363 19.1406 14.3961 19.1406 13.5041V12.5782H20.2344H21.3281V13.5041ZM25.2204 12.7031C25.656 12.9367 25.8354 13.561 25.5831 13.9659C25.4773 14.1357 24.4966 14.969 24.4011 14.9703C24.3806 14.9705 24.402 14.7169 24.4487 14.4068C24.4953 14.0966 24.5353 13.701 24.5372 13.5277C24.5393 13.3543 24.5606 13.0697 24.5845 12.8954C24.6237 12.6095 24.6457 12.5782 24.8077 12.5782C24.9066 12.5782 25.0923 12.6344 25.2204 12.7031ZM28.0714 20.9331C28.3462 21.0836 28.6821 21.4194 28.8325 21.6943C28.9408 21.892 28.9517 22.3689 28.9688 27.6343L28.9874 33.3594H17.5015H6.01562L6.01603 27.771C6.01623 24.3176 6.04207 22.0902 6.08363 21.9406C6.21071 21.4833 6.62894 21.0448 7.09925 20.8759C7.30132 20.8034 9.29352 20.7892 17.6025 20.8009C27.1567 20.8145 27.8711 20.8235 28.0714 20.9331ZM12.6661 22.6441C12.0173 23.2976 11.5447 23.8293 11.5183 23.9355C11.4469 24.222 11.6048 24.432 12.7444 25.5657L13.8087 26.6245L14.2008 26.2323L14.593 25.8402L13.7062 24.9514L12.8194 24.0626L13.7054 23.1746L14.5914 22.2866L14.2194 21.9099C14.0148 21.7027 13.8298 21.5333 13.8082 21.5333C13.7866 21.5333 13.2727 22.0332 12.6661 22.6441ZM20.7806 21.9099L20.4086 22.2866L21.2946 23.1746L22.1806 24.0626L21.2938 24.9514L20.407 25.8402L20.7992 26.2323L21.1913 26.6245L22.2556 25.5657C23.3952 24.432 23.5531 24.222 23.4817 23.9355C23.4425 23.778 21.3027 21.5333 21.1917 21.5333C21.1702 21.5333 20.9852 21.7027 20.7806 21.9099ZM17.059 23.7612C16.168 24.949 15.449 25.9284 15.4612 25.9377C16.1861 26.4903 16.2792 26.5429 16.366 26.449C16.5565 26.2431 19.5646 22.2082 19.5413 22.1898C19.276 21.9814 18.7431 21.6016 18.7156 21.6016C18.6955 21.6016 17.9501 22.5734 17.059 23.7612ZM4.92187 29.5997V33.3594H3.27413H1.6264L1.65812 31.7359C1.6856 30.331 1.7098 30.0449 1.83783 29.6116C2.14723 28.5643 2.72315 27.5805 3.43218 26.8878C3.77931 26.5487 4.74898 25.8399 4.86567 25.8399C4.89657 25.8399 4.92187 27.5318 4.92187 29.5997ZM30.6983 26.1872C31.9155 27.0197 32.7314 28.1537 33.1621 29.6116C33.2902 30.0449 33.3144 30.331 33.3419 31.7359L33.3736 33.3594H31.7259H30.0781V29.5997C30.0781 27.5318 30.1034 25.8399 30.1343 25.8399C30.1652 25.8399 30.419 25.9962 30.6983 26.1872ZM16.8369 27.4669C16.0943 27.7322 15.6211 28.2312 15.404 28.9779C15.1199 29.9553 15.6431 31.0549 16.6067 31.5057C16.9106 31.6478 17.0907 31.6837 17.5 31.6837C18.3848 31.6837 19.098 31.2292 19.4738 30.4259C19.8427 29.6373 19.6591 28.6188 19.0358 27.9955C18.4798 27.4395 17.5435 27.2144 16.8369 27.4669ZM17.9326 28.5308C18.635 28.8243 18.8062 29.7451 18.26 30.2913C17.492 31.0593 16.2334 30.3714 16.4355 29.294C16.5563 28.6505 17.3052 28.2686 17.9326 28.5308Z" fill="#0D5EF4"/>
</svg>
