<svg width="33" height="33" viewBox="0 0 33 33" fill="none" xmlns="http://www.w3.org/2000/svg">
<path fill-rule="evenodd" clip-rule="evenodd" d="M23.3017 0.223133C22.9841 0.422879 19.8709 3.59407 19.8169 3.7731C19.7514 3.98953 19.8909 4.29776 20.0967 4.39148C20.1899 4.434 20.5262 4.46873 20.844 4.46873H21.4219V5.01444V5.56016L11.8345 5.57841L2.24706 5.59666L1.87943 5.74719C1.11209 6.0615 0.579845 6.5891 0.290206 7.3226C0.150958 7.67513 0.132159 7.85888 0.108234 9.10008L0.0815735 10.4844H0.629406H1.17724L1.19945 9.13426C1.22379 7.65592 1.24498 7.5663 1.67127 7.14001C2.16025 6.65097 1.25722 6.69239 11.8686 6.67236L21.4219 6.65438V11.8506V17.0469H21.9687H22.5156V10.4534C22.5156 5.69858 22.4941 3.81268 22.4384 3.69046C22.3614 3.52147 22.1426 3.39952 21.8473 3.3611C21.7147 3.34381 21.8341 3.19868 22.6505 2.38466L23.6094 1.42858L24.5682 2.38466C25.3847 3.19868 25.504 3.34381 25.3715 3.3611C25.0762 3.39952 24.8573 3.52147 24.7804 3.69046C24.7247 3.81248 24.7031 5.62838 24.7031 10.1799V16.5H25.25H25.7969V11.573V6.64598L27.147 6.66819C28.6253 6.69253 28.7149 6.71372 29.1412 7.14001C29.6223 7.62112 29.5888 7.16482 29.6094 13.5093L29.628 19.2344H30.1752H30.7225L30.7035 13.4751L30.6846 7.7158L30.5258 7.3226C30.2269 6.58233 29.6927 6.05501 28.9331 5.75033C28.6088 5.62024 28.4021 5.5998 27.1811 5.57663L25.7969 5.55031V5.00952V4.46873H26.3747C26.6925 4.46873 27.0288 4.434 27.122 4.39148C27.3278 4.29776 27.4673 3.98953 27.4019 3.7731C27.3451 3.58512 24.1375 0.332919 23.8691 0.19121C23.628 0.0638561 23.548 0.0683677 23.3017 0.223133ZM26.8906 0.640604C26.8906 1.16697 26.8966 1.18748 27.0491 1.18748C27.3556 1.18748 27.8984 1.39413 28.2032 1.62682C28.6174 1.94312 28.9345 2.45473 29.031 2.96243L29.1094 3.37498H29.6406H30.1719L30.1679 3.18699C30.1603 2.82311 29.9265 2.09502 29.6943 1.71186C29.2352 0.954305 28.4657 0.388153 27.6398 0.200301C26.8624 0.0234557 26.8906 0.00691265 26.8906 0.640604ZM2.82812 8.29685V8.84373H3.37499H3.92187V8.29685V7.74998H3.37499H2.82812V8.29685ZM5.01562 8.29685V8.84373H5.56249H6.10937V8.29685V7.74998H5.56249H5.01562V8.29685ZM7.20312 8.29685V8.84373H7.74999H8.29687V8.29685V7.74998H7.74999H7.20312V8.29685ZM16.2514 8.37683C16.1711 8.41566 16.0712 8.52271 16.0293 8.61466C15.9751 8.73347 15.9531 10.5302 15.9531 14.8284V20.875H15.4062H14.8594V16.7424C14.8594 13.8594 14.8364 12.5595 14.7835 12.4433C14.6503 12.151 14.4774 12.125 12.6719 12.125C10.8664 12.125 10.6935 12.151 10.5602 12.4433C10.5073 12.5595 10.4844 13.8594 10.4844 16.7424V20.875H9.93749H9.39062V18.6565C9.39062 16.3094 9.37325 16.1662 9.07227 16.029C8.84415 15.9251 5.56208 15.9251 5.33397 16.029C5.03298 16.1662 5.01562 16.3094 5.01562 18.6565V20.875H3.92187H2.82812V21.4219V21.9687H9.93749H17.0469V15.6797V9.3906H18.1406H19.2344V13.7656V18.1406H19.7812H20.3281V13.4612C20.3281 10.1774 20.3055 8.7321 20.2522 8.6152C20.2105 8.5236 20.1014 8.4145 20.0098 8.37273C19.7918 8.27348 16.4575 8.27703 16.2514 8.37683ZM0.109259 18.4311L0.127921 25.2842L0.28672 25.6774C0.584835 26.4157 1.11428 26.9393 1.87943 27.2528C2.24474 27.4023 2.27755 27.4034 7.08349 27.4226C9.74355 27.4332 11.9195 27.4639 11.919 27.4909C11.9185 27.5179 11.6319 28.4936 11.2821 29.6592L10.6459 31.7783L10.0183 31.798L9.39062 31.8176V32.362V32.9062H15.4062H21.4219V32.362V31.8176L20.7938 31.798L20.1658 31.7783L19.8296 30.6504C19.6447 30.03 19.4838 29.5122 19.472 29.4996C19.4308 29.4554 18.4824 29.7894 18.4824 29.8481C18.4824 29.8808 18.6055 30.3151 18.7558 30.8131C18.9062 31.3111 19.0293 31.7397 19.0293 31.7655C19.0293 31.7914 17.3989 31.8125 15.4062 31.8125C13.4136 31.8125 11.7836 31.7894 11.7841 31.7612C11.7846 31.733 12.0713 30.7563 12.4212 29.5908L13.0575 27.4717L15.0521 27.4535L17.0469 27.4354V26.8907V26.3461L9.68114 26.3278C1.50823 26.3076 2.15676 26.3454 1.67127 25.86C1.34151 25.5302 1.23575 25.266 1.20137 24.686L1.16992 24.1562H8.83499H16.5V23.6094V23.0625H8.84374H1.18749V17.3203V11.5781H0.639044H0.090597L0.109259 18.4311ZM13.7656 17.0469V20.875H12.6719H11.5781V17.0469V13.2187H12.6719H13.7656V17.0469ZM8.29687 18.9609V20.875H7.20312H6.10937V18.9609V17.0469H7.20312H8.29687V18.9609ZM23.0175 17.6903C20.3918 18.1915 18.4054 20.0823 17.7497 22.7045C17.5894 23.3454 17.5904 24.9709 17.7514 25.6159C18.1259 27.115 19.0219 28.4911 20.2097 29.3912C20.7872 29.8288 21.8724 30.3391 22.6186 30.5238C23.1013 30.6434 23.4316 30.6761 24.1562 30.6761C25.2624 30.6761 25.9639 30.5266 26.9005 30.0915L27.5148 29.8061L28.9288 31.2127C29.7065 31.9864 30.4504 32.6752 30.582 32.7434C30.9268 32.9221 31.6262 32.9114 31.9834 32.722C32.3038 32.5521 32.5674 32.2835 32.7423 31.9492C32.9115 31.6257 32.912 30.9073 32.7434 30.582C32.6752 30.4504 31.9864 29.7065 31.2127 28.9288L29.8061 27.5148L30.0915 26.9004C30.5266 25.9639 30.6761 25.2624 30.6761 24.1562C30.6761 23.0155 30.5184 22.3092 30.0428 21.3198C29.1856 19.5363 27.6761 18.298 25.7385 17.789C25.0584 17.6103 23.6954 17.5608 23.0175 17.6903ZM25.5576 18.8598C27.0845 19.2825 28.3959 20.3737 29.0741 21.7859C29.4929 22.6578 29.5866 23.0912 29.5866 24.1562C29.5866 25.2194 29.4928 25.6549 29.0774 26.52C28.3942 27.9425 27.0697 29.0399 25.5234 29.4646C24.9038 29.6348 23.4087 29.6348 22.7891 29.4646C21.2387 29.0388 19.8594 27.8886 19.2096 26.4799C18.8768 25.7584 18.7545 25.2565 18.709 24.4265C18.5822 22.1149 19.9137 19.9995 22.0562 19.1085C22.8468 18.7798 23.3923 18.686 24.3271 18.7181C24.792 18.7341 25.3251 18.7955 25.5576 18.8598ZM23.456 19.8473C22.5407 20.0143 21.5269 20.5494 20.9807 21.154C20.5594 21.6202 20.2001 22.2346 20.0078 22.8179C19.8531 23.287 19.8256 23.4885 19.8256 24.1562C19.8256 24.824 19.8531 25.0255 20.0078 25.4946C20.3257 26.4585 20.9008 27.2162 21.7407 27.778C22.5007 28.2864 23.1725 28.4831 24.1562 28.4855C24.8308 28.4871 25.0221 28.4612 25.5039 28.302C26.8359 27.8623 27.8673 26.8279 28.3031 25.4946C28.4549 25.0301 28.4839 24.8175 28.4855 24.1562C28.4871 23.4846 28.4609 23.2896 28.305 22.8179C27.7323 21.0846 26.1693 19.894 24.3613 19.814C24.0417 19.7998 23.6344 19.8149 23.456 19.8473ZM25.2615 21.062C27.4998 21.8734 28.1521 24.6895 26.5025 26.4191C24.5379 28.4787 21.0708 27.2007 20.8912 24.3508C20.8286 23.3575 21.1253 22.5959 21.8607 21.8615C22.6011 21.1225 23.2415 20.8659 24.2588 20.9006C24.662 20.9144 25.0075 20.97 25.2615 21.062ZM23.4932 22.096C22.7694 22.3461 22.2832 22.8487 22.0698 23.5674C21.8946 24.1571 21.894 24.1562 22.5015 24.1562H23.0341L23.1138 23.8582C23.2098 23.4994 23.5675 23.1577 23.9155 23.0924L24.1562 23.0472V22.508C24.1562 21.9937 24.1491 21.9689 24.0024 21.971C23.9178 21.9722 23.6887 22.0285 23.4932 22.096ZM31.8125 31.2428C31.8125 31.5637 31.5806 31.8125 31.2817 31.8125C31.0519 31.8125 30.941 31.7196 29.7143 30.4987L28.3942 29.1849L28.787 28.788L29.1798 28.391L30.4962 29.7122C31.6317 30.852 31.8125 31.0622 31.8125 31.2428Z" fill="#0D5EF4"/>
</svg>
