<svg width="33" height="33" viewBox="0 0 33 33" fill="none" xmlns="http://www.w3.org/2000/svg">
<path fill-rule="evenodd" clip-rule="evenodd" d="M12.9702 0.17373C12.6901 0.309287 12.6719 0.475674 12.6719 2.89334V5.20792L12.1421 5.42872C11.1277 5.85139 11.4443 6.00752 9.60549 4.17761C8.71654 3.29297 7.91722 2.53254 7.8291 2.48776C7.74099 2.44299 7.58718 2.42604 7.48731 2.4501C7.23027 2.51203 2.50493 7.23614 2.45011 7.48606C2.42618 7.59489 2.45161 7.75144 2.51163 7.86464C2.56789 7.9708 3.32354 8.76486 4.19074 9.62934C5.05802 10.4937 5.76759 11.2263 5.76759 11.2572C5.76759 11.2881 5.64071 11.619 5.48567 11.9926L5.20376 12.6719H2.89123C0.445264 12.6719 0.307383 12.688 0.169639 12.9902C0.0634082 13.2235 0.0634082 19.7765 0.169639 20.0098C0.307383 20.312 0.445264 20.3281 2.89123 20.3281H5.20376L5.48567 21.0074C5.64071 21.381 5.76759 21.7119 5.76759 21.7428C5.76759 21.7737 5.05802 22.5063 4.19074 23.3707C3.32354 24.2351 2.56734 25.0303 2.5104 25.1378C2.44799 25.2555 2.42413 25.4048 2.45038 25.5137C2.51225 25.7707 7.23704 30.4952 7.48703 30.5502C7.58964 30.5727 7.74468 30.5551 7.83143 30.511C7.91824 30.4669 8.71654 29.707 9.60549 28.8224C11.4443 26.9925 11.1277 27.1486 12.1421 27.5713L12.6719 27.7921V30.1067C12.6719 32.5549 12.688 32.6926 12.9902 32.8304C13.2235 32.9366 19.7765 32.9366 20.0098 32.8304C20.312 32.6926 20.3281 32.5547 20.3281 30.1088V27.7962L21.0074 27.5143C21.381 27.3593 21.7119 27.2324 21.7428 27.2324C21.7737 27.2324 22.5063 27.942 23.3707 28.8093C24.2351 29.6765 25.0292 30.4321 25.1354 30.4884C25.2486 30.5484 25.4051 30.5738 25.5139 30.5499C25.7639 30.4951 30.488 25.7697 30.5499 25.5127C30.609 25.2675 30.5049 25.0874 30.0123 24.5835L29.5948 24.1562H31.0081C32.5107 24.1562 32.7004 24.1231 32.8304 23.8379C32.9382 23.6012 32.9382 5.02376 32.8304 4.7871C32.7886 4.6955 32.6795 4.5864 32.5879 4.54463C32.3573 4.43956 27.9865 4.43956 27.7559 4.54463C27.459 4.67991 27.4375 4.83885 27.4375 6.89872V8.84375H25.4925C24.2126 8.84375 23.4905 8.86973 23.3809 8.91963C23.0961 9.04938 23.0625 9.24003 23.0625 10.7268V12.125H21.1175C19.8376 12.125 19.1155 12.151 19.0059 12.2009C18.7142 12.3338 18.6875 12.5085 18.6875 14.2815V15.9531H16.7425C15.4626 15.9531 14.7405 15.9791 14.6309 16.029C14.3554 16.1545 14.3125 16.3614 14.3125 17.5628V18.6875H12.3034H10.2943L10.1484 18.1469C10.0682 17.8496 9.98338 17.3574 9.95993 17.0532L9.91728 16.5H11.0587C11.918 16.5 12.2458 16.4758 12.3848 16.402C12.4863 16.3482 13.1381 15.7329 13.8333 15.0349L15.0973 13.7656H16.103C17.1806 13.7656 17.3948 13.7174 17.5179 13.4473C17.5625 13.3492 17.5938 12.8664 17.5938 12.2747V11.2687L18.5346 10.3297L19.4754 9.39062H20.4796C21.5555 9.39062 21.7698 9.34236 21.8929 9.07228C21.9375 8.97425 21.9688 8.49136 21.9688 7.89971V6.89366L22.9096 5.95468L23.8504 5.01562H24.8546C25.9305 5.01562 26.1448 4.96736 26.2679 4.69728C26.3125 4.59925 26.3438 4.11629 26.3438 3.5243V2.51791L27.0115 1.85271L27.6792 1.1875H30.2927H32.9063V0.640625V0.09375H30.1343C27.8627 0.09375 27.329 0.111387 27.1777 0.191504C27.0762 0.245234 26.6707 0.614375 26.2766 1.01182L25.5601 1.73438H24.5538C23.9618 1.73438 23.4789 1.76562 23.3809 1.81025C23.1107 1.93337 23.0625 2.14754 23.0625 3.22529V4.23134L22.1217 5.17032L21.1809 6.10938H20.1767C19.1007 6.10938 18.8865 6.15764 18.7634 6.42772C18.7188 6.52575 18.6875 7.00864 18.6875 7.60029V8.60634L17.7467 9.54532L16.8059 10.4844H15.8017C14.7257 10.4844 14.5115 10.5326 14.3884 10.8027C14.3438 10.9007 14.3125 11.3836 14.3125 11.9751V12.9809L13.0984 14.1936L11.8844 15.4062H10.9405C10.074 15.4062 9.99951 15.3965 10.0314 15.2866C10.0504 15.2208 10.1007 15.0286 10.143 14.8594C10.4363 13.6855 11.0267 12.6851 11.9429 11.8097C12.2533 11.5131 12.6072 11.1936 12.7295 11.0996L12.9519 10.9287L12.7002 10.5527C12.5618 10.3459 12.4262 10.1519 12.3989 10.1215C12.3717 10.091 12.0974 10.2559 11.7894 10.4879C10.9033 11.1557 10.0964 12.1679 9.59161 13.2452C7.41778 17.8841 10.3155 23.2902 15.3855 24.0545C15.9118 24.1338 16.8557 24.1561 19.7813 24.1586L23.5068 24.1619L23.1992 24.44C22.4188 25.1458 20.9194 25.9866 19.7542 26.3718C18.598 26.7542 17.9431 26.8505 16.5 26.8505C14.993 26.8505 14.3517 26.7482 13.0777 26.3048C11.5369 25.7684 10.4144 25.0524 9.18105 23.819C7.94764 22.5856 7.23157 21.4631 6.69523 19.9223C6.38822 19.0402 6.1826 18.0404 6.12969 17.1727L6.08874 16.5H5.54282H4.9969L5.04544 17.1665C5.09028 17.7826 5.24375 18.8334 5.32995 19.1147C5.36434 19.2269 5.23555 19.2344 3.27705 19.2344H1.18751V16.5V13.7656H3.40598C4.90202 13.7656 5.67934 13.7406 5.79302 13.6888C5.97342 13.6066 6.06796 13.4201 6.65448 11.9886C6.8975 11.3956 6.99184 11.0821 6.96326 10.9632C6.9392 10.8633 6.2621 10.1303 5.33686 9.20243L3.75167 7.61287L5.68228 5.68227L7.61288 3.75166L9.20244 5.33685C10.1303 6.26209 10.8633 6.93919 10.9632 6.96325C11.0821 6.99183 11.3956 6.89749 11.9886 6.65447C13.4201 6.06795 13.6066 5.97341 13.6888 5.79301C13.7406 5.67933 13.7656 4.90201 13.7656 3.40597V1.1875H16.5H19.2344V2.82812V4.46875H19.7813H20.3281V2.52372C20.3281 0.463848 20.3067 0.304912 20.0098 0.169629C19.7869 0.0681153 13.1805 0.071875 12.9702 0.17373ZM25.25 3.375V3.92188H24.7031H24.1563V3.375V2.82812H24.7031H25.25V3.375ZM31.8125 14.3125V23.0625H30.1719H28.5313V14.3125V5.5625H30.1719H31.8125V14.3125ZM20.875 7.75V8.29688H20.3281H19.7813V7.75V7.20312H20.3281H20.875V7.75ZM27.4375 16.5V23.0625H25.7969H24.1563V16.5V9.9375H25.7969H27.4375V16.5ZM16.5 12.125V12.6719H15.9531H15.4063V12.125V11.5781H15.9531H16.5V12.125ZM23.0625 18.1406V23.0625H21.4219H19.7813V18.1406V13.2188H21.4219H23.0625V18.1406ZM18.6875 20.0547V23.0625L17.3032 23.0617C16.5419 23.0613 15.8036 23.0419 15.6626 23.0186L15.4063 22.9762V20.0116V17.0469H17.0469H18.6875V20.0547ZM14.3125 21.2168C14.3125 22.1488 14.288 22.6523 14.2426 22.6523C14.097 22.6523 13.2851 22.246 12.8676 21.9641C12.1318 21.4674 11.2577 20.5511 10.8669 19.8667C10.8284 19.7993 11.1871 19.7812 12.5653 19.7812H14.3125V21.2168ZM7.89192 24.0672C8.45281 24.7189 9.2747 25.4476 10.0524 25.9827L10.5431 26.3204L9.07796 27.7843L7.61281 29.2483L5.68228 27.3177L3.75174 25.3872L5.21579 23.9219L6.67991 22.4566L7.02697 22.9611C7.21783 23.2385 7.60707 23.7362 7.89192 24.0672ZM28.6344 24.7721L29.2475 25.388L27.3173 27.3181L25.3872 29.2483L23.9216 27.7839L22.456 26.3195L22.9991 25.9479C23.5373 25.5798 24.4832 24.7819 24.8697 24.3701L25.0705 24.1562H26.546H28.0214L28.6344 24.7721ZM14.6543 27.825C15.8381 28.04 18.1786 27.9587 19.1148 27.6703C19.2269 27.6357 19.2344 27.7644 19.2344 29.723V31.8125H16.5H13.7656V29.723C13.7656 27.7644 13.7732 27.6357 13.8853 27.6703C13.9511 27.6905 14.2971 27.7602 14.6543 27.825Z" fill="#0D5EF4"/>
</svg>
