<svg width="35" height="35" viewBox="0 0 35 35" fill="none" xmlns="http://www.w3.org/2000/svg">
<path fill-rule="evenodd" clip-rule="evenodd" d="M5.05823 0.609805C4.58628 0.755889 4.22889 1.05496 3.98977 1.50388C3.86994 1.72892 3.86235 1.96476 3.86235 5.46872C3.86235 9.15541 3.86392 9.19718 4.00987 9.46775C4.18254 9.78767 4.45031 10.0506 4.7852 10.229C5.00129 10.344 5.23159 10.3584 7.16069 10.3771L9.29692 10.3978V10.9411V11.4843L6.10112 11.486C4.24202 11.487 2.78261 11.516 2.61199 11.5554C1.85662 11.7296 1.13426 12.2954 0.826031 12.9541C0.466256 13.7231 0.436656 13.3463 1.55631 22.2569C2.51731 29.9043 2.59052 30.42 2.76388 30.7676C2.98222 31.2052 3.40427 31.6608 3.81812 31.9057C4.32671 32.2066 4.7474 32.2633 6.47819 32.2645L8.06871 32.2656L9.58854 33.2792C11.0568 34.2583 11.4107 34.4535 11.7168 34.4527C12.2649 34.4512 12.9062 33.974 13.0484 33.4617C13.0902 33.3114 13.1244 32.9808 13.1246 32.727L13.125 32.2656L21.6187 32.2645C30.7713 32.2634 30.5643 32.2711 31.182 31.9057C31.5958 31.6608 32.0179 31.2052 32.2362 30.7676C32.4096 30.42 32.4828 29.9043 33.4438 22.2569C34.5634 13.3463 34.5338 13.7231 34.1741 12.9541C34.0861 12.7661 33.8591 12.4573 33.6697 12.2678C33.13 11.7282 32.5083 11.4892 31.6357 11.486L31.1767 11.4843L31.1572 7.09226L31.1377 2.70017L30.9789 2.30696C30.6722 1.54722 30.0705 0.971973 29.3022 0.703868C29.0021 0.599141 28.7136 0.581026 27.3438 0.581026C25.974 0.581026 25.6855 0.599141 25.3854 0.703868C24.6141 0.972999 24.0083 1.55392 23.7134 2.30696C23.5823 2.64186 23.5552 2.86491 23.5306 3.81101L23.5016 4.92185H19.6851H15.8685L15.8468 3.33249C15.8279 1.93919 15.8095 1.7136 15.6978 1.50388C15.5195 1.16898 15.2565 0.901221 14.9366 0.728546C14.6646 0.581846 14.6372 0.580958 9.94633 0.568858C7.3521 0.562227 5.15243 0.580616 5.05823 0.609805ZM14.5978 1.80842L14.7657 1.97617V5.46872V8.96127L14.5978 9.12902L14.4301 9.29685H9.8438H5.2575L5.08974 9.12902L4.92192 8.96127V5.46872V1.97617L5.08974 1.80842L5.2575 1.6406H9.8438H14.4301L14.5978 1.80842ZM29.1652 1.79242C29.44 1.94288 29.7759 2.27873 29.9263 2.5536C30.0263 2.73619 30.0472 3.01257 30.0655 4.39206L30.0871 6.0156H27.3482H24.6094L24.6098 4.52878C24.61 3.71107 24.6405 2.933 24.6774 2.7999C24.7563 2.51607 24.99 2.18166 25.2552 1.97303C25.6386 1.67149 25.8521 1.6408 27.4463 1.6583C28.719 1.67225 28.9833 1.69289 29.1652 1.79242ZM8.06714 2.82068C7.73792 2.93054 7.29522 3.39299 7.1935 3.73349C7.07845 4.11842 7.07845 6.81902 7.1935 7.20396C7.37322 7.80552 8.11423 8.27617 8.73309 8.1819C8.87398 8.16044 9.68014 7.79499 10.5244 7.3698C12.1993 6.52624 12.3604 6.39902 12.5206 5.79343C12.5896 5.53277 12.5896 5.40467 12.5206 5.14401C12.3607 4.5391 12.199 4.41127 10.5215 3.56307C8.8828 2.73448 8.59049 2.64603 8.06714 2.82068ZM10.015 4.52837C11.3979 5.21887 11.5398 5.32325 11.4555 5.58876C11.4174 5.70907 8.70964 7.10935 8.51523 7.10935C8.46177 7.10935 8.36969 7.06102 8.31056 7.00195C8.15033 6.84165 8.15033 4.09579 8.31056 3.93549C8.36969 3.87643 8.46177 3.8281 8.51523 3.8281C8.56869 3.8281 9.2436 4.14323 10.015 4.52837ZM23.5157 8.74997V11.4843H16.9532H10.3907V10.9411V10.3978L12.5269 10.3771C14.5644 10.3574 14.6758 10.3496 14.9366 10.2089C15.2565 10.0362 15.5195 9.76846 15.6978 9.43357C15.8095 9.22384 15.8279 8.99825 15.8468 7.60495L15.8685 6.0156H19.6921H23.5157V8.74997ZM30.0782 7.65622V8.2031H27.3438H24.6094V7.65622V7.10935H27.3438H30.0782V7.65622ZM26.7969 13.125V16.9531H25.7032H24.6094V13.125V9.29685H25.7032H26.7969V13.125ZM30.0782 13.125V16.9531H28.9844H27.8907V13.125V9.29685H28.9844H30.0782V13.125ZM23.5157 15.1078V17.6374L24.7122 20.0297L25.9087 22.4218H24.4387H22.9688V22.9687V23.5156H25.2338C26.8109 23.5156 27.5828 23.4904 27.7755 23.4327C28.3217 23.269 28.4686 23.0455 29.8651 20.2518L31.1719 17.6374V15.1077V12.5781H31.6768C32.0968 12.5781 32.2432 12.6102 32.5473 12.7691C32.9956 13.0033 33.2969 13.444 33.3401 13.9286C33.3565 14.1137 32.9436 17.6454 32.3778 22.1587C31.3063 30.706 31.3598 30.3968 30.8844 30.7976C30.4149 31.1934 30.979 31.1718 21.1253 31.1718H12.0313V32.1889C12.0313 33.2724 11.9886 33.4177 11.6931 33.3405C11.6194 33.3212 10.8407 32.8254 9.96254 32.2387L8.366 31.1718H6.57341C4.64048 31.1718 4.54171 31.1568 4.11569 30.7976C3.64032 30.3968 3.69378 30.706 2.62231 22.1587C2.0565 17.6454 1.64361 14.1137 1.66002 13.9286C1.70315 13.444 2.00448 13.0033 2.45278 12.7691L2.81837 12.5781H13.167H23.5157V15.1078ZM17.0895 13.7317C16.7843 13.8317 16.5128 13.9972 16.3286 14.1955C16.1296 14.4099 15.9278 14.7753 15.9278 14.9211C15.9278 15.1745 14.0281 16.3052 12.8173 16.7726C11.3834 17.3261 10.6498 17.4385 8.10063 17.4953C6.12347 17.5394 5.95517 17.553 5.58829 17.6971C4.83442 17.9935 4.25419 18.5988 3.98519 19.3697C3.88046 19.6698 3.86235 19.9583 3.86235 21.3281C3.86235 22.6979 3.88046 22.9864 3.98519 23.2865C4.38188 24.4234 5.29174 25.0654 6.61088 25.1393L7.24026 25.1745L7.31416 25.5243C7.35483 25.7166 7.59696 26.8122 7.85221 27.959L8.3163 30.0439L9.9004 30.0622L11.4844 30.0806V27.7839V25.4871L11.7066 25.5356C12.26 25.6562 13.0241 25.9467 13.8428 26.3477C14.7791 26.8063 15.9278 27.5692 15.9278 27.7325C15.9278 28.0351 16.3615 28.5769 16.7823 28.8001C17.3597 29.1063 18.2152 28.9527 18.6715 28.4609C19.0969 28.0022 19.1046 27.9588 19.1275 25.8953L19.1485 24.0025L19.4795 23.8925C20.7367 23.475 21.527 22.1075 21.2597 20.8123C21.0605 19.8477 20.4416 19.1181 19.5452 18.7912L19.1485 18.6466L19.1275 16.7574C19.1046 14.6977 19.0968 14.654 18.6715 14.1953C18.3074 13.8028 17.5501 13.5809 17.0895 13.7317ZM17.8791 14.9334L18.0469 15.1012V21.3281V27.555L17.8791 27.7228C17.7733 27.8286 17.6332 27.8906 17.5 27.8906C17.3669 27.8906 17.2267 27.8286 17.121 27.7228L16.9532 27.555V21.3281V15.1012L17.121 14.9334C17.2267 14.8276 17.3669 14.7656 17.5 14.7656C17.6332 14.7656 17.7733 14.8276 17.8791 14.9334ZM15.8594 21.3273V26.2483L15.5005 26.0199C13.8604 24.9762 11.8348 24.2891 9.97778 24.1463L9.3311 24.0967V21.3281V18.5595L10.0103 18.5075C11.7083 18.3771 13.8056 17.6869 15.2442 16.7851C15.5638 16.5848 15.833 16.4176 15.8423 16.4135C15.8517 16.4095 15.8594 18.6207 15.8594 21.3273ZM28.6597 20.2009C27.9903 21.5405 27.538 22.3694 27.4636 22.3931C27.3977 22.414 27.2899 22.414 27.224 22.3931C27.1496 22.3694 26.6973 21.5405 26.0279 20.2009L24.9515 18.0468H27.3438H29.7361L28.6597 20.2009ZM8.20317 21.3281V24.0625H7.27116C6.10474 24.0625 5.87984 23.999 5.41753 23.5395C4.85992 22.9851 4.87906 22.9687 6.08403 22.9687H7.10942V22.4218V21.875H6.01567H4.92192V21.3281V20.7812H6.01567H7.10942V20.2343V19.6875H6.08403C5.19919 19.6875 5.05864 19.6728 5.05864 19.5805C5.05864 19.4127 5.76718 18.7464 6.02408 18.6725C6.15109 18.6359 6.69325 18.6033 7.22905 18.5999L8.20317 18.5937V21.3281ZM19.7114 20.1831C20.0782 20.5521 20.2344 20.8941 20.2344 21.3281C20.2344 21.7621 20.0782 22.1041 19.7114 22.4731C19.134 23.054 19.1407 23.0674 19.1407 21.3281C19.1407 19.5888 19.134 19.6022 19.7114 20.1831ZM22.9688 25.1562V25.7031H26.7969H30.625V25.1562V24.6093H26.7969H22.9688V25.1562ZM10.3181 25.2562C10.3663 25.286 10.3907 25.9183 10.3907 27.1427V28.9843H9.78029H9.16991L9.08931 28.5913C9.04502 28.3751 8.85826 27.5241 8.6743 26.7002C8.49042 25.8763 8.33989 25.1873 8.33989 25.1691C8.33989 25.1203 10.2331 25.2036 10.3181 25.2562ZM22.9688 27.3437V27.8906H26.7969H30.625V27.3437V26.7968H26.7969H22.9688V27.3437ZM22.9688 29.5312V30.0781H23.5157H24.0625V29.5312V28.9843H23.5157H22.9688V29.5312ZM25.1563 29.5312V30.0781H25.7032H26.25V29.5312V28.9843H25.7032H25.1563V29.5312ZM27.3438 29.5312V30.0781H27.8907H28.4375V29.5312V28.9843H27.8907H27.3438V29.5312ZM29.5313 29.5312V30.0781H30.0782H30.625V29.5312V28.9843H30.0782H29.5313V29.5312Z" fill="#0D5EF4"/>
</svg>
