<svg width="55" height="56" viewBox="0 0 55 56" fill="none" xmlns="http://www.w3.org/2000/svg">
<path fill-rule="evenodd" clip-rule="evenodd" d="M15.1311 0.1491C13.886 0.593934 13.5863 1.0783 13.5947 2.63173C13.5998 3.57639 13.6476 3.84377 13.9905 4.84881C14.43 6.13658 15.1962 7.71923 16.1247 9.25665L16.752 10.2955L16.42 11.0278C16.2374 11.4305 15.9762 12.2003 15.8398 12.7384C14.5277 17.9103 17.0937 23.2953 21.955 25.5722C24.8635 26.9345 28.3427 26.9532 31.2239 25.622L32.0081 25.2597L32.9498 25.8051C35.7175 27.408 38.4254 28.2595 39.7202 27.934C40.5108 27.7352 40.885 27.4476 41.2057 26.7919C41.47 26.2518 41.4896 26.1241 41.4395 25.2667C41.359 23.8887 40.7953 22.3816 39.6113 20.3798C39.0742 19.4716 38.7385 19.1891 38.2976 19.2741C37.9063 19.3495 37.5977 19.6934 37.5977 20.0543C37.5977 20.1999 37.8621 20.7626 38.1854 21.3045C39.3638 23.2805 40.0369 25.3141 39.7272 25.9629C39.6035 26.2221 39.5113 26.2692 39.0718 26.2974C38.1469 26.3567 36.5523 25.7909 34.1752 24.5599L33.5994 24.2617L34.5062 23.3295C36.0157 21.7776 36.9224 20.1961 37.4606 18.1763C37.7025 17.2681 37.7384 16.9191 37.7384 15.4686C37.7384 14.0182 37.7025 13.6692 37.4606 12.761C36.9356 10.7911 36.0607 9.22872 34.6654 7.77057C31.2608 4.21244 26.0168 3.31364 21.5918 5.52975C20.4313 6.11091 19.6182 6.72214 18.6162 7.7666L17.7355 8.68473L17.2524 7.86038C16.2063 6.07546 15.3444 3.96591 15.1934 2.82165C15.052 1.74861 15.5414 1.49746 17.0221 1.88321C17.7662 2.077 19.1692 2.71928 20.3122 3.38927C21.2244 3.92401 21.6813 3.99244 22.0276 3.64611C22.1875 3.48627 22.2394 3.31633 22.2156 3.03209C22.188 2.70338 22.0946 2.57189 21.6455 2.22986C20.831 1.6095 18.2777 0.367488 17.4123 0.170584C16.514 -0.0337324 15.6653 -0.0416816 15.1311 0.1491ZM28.1445 6.12734C30.2249 6.45552 32.1033 7.46807 33.5795 9.05674C34.7772 10.3457 35.6009 11.9436 35.9397 13.6354C36.1587 14.7287 36.103 16.7494 35.8241 17.8319C35.4125 19.4292 34.2814 21.2906 33.0247 22.4392C32.0249 23.353 32.123 23.3581 30.657 22.315C26.6039 19.4308 22.8442 15.7495 19.7702 11.6552C19.2822 11.0053 18.8588 10.4126 18.829 10.3382C18.7746 10.2017 19.1366 9.65228 19.6438 9.10132L19.9182 8.80344L24.1687 13.0491C28.7755 17.6506 28.7095 17.599 29.2773 17.0311C29.4496 16.8589 29.541 16.6459 29.541 16.4166C29.541 16.0983 29.1561 15.6804 25.3784 11.897C22.0335 8.54702 21.2475 7.70698 21.377 7.62072C21.8499 7.30522 22.8794 6.77477 23.2415 6.65983L23.6559 6.52835L25.9863 8.85006C28.1017 10.9575 28.3504 11.1718 28.6804 11.1718C29.1771 11.1718 29.541 10.8168 29.541 10.3325C29.541 9.99378 29.3653 9.78291 27.5869 7.98789L25.6327 6.01552L26.5395 6.01637C27.0382 6.0168 27.7605 6.06676 28.1445 6.12734ZM18.6397 12.9442C21.4513 16.6756 25.1923 20.3723 29.0363 23.2178C30.4112 24.2356 30.3984 24.2012 29.5102 24.4876C29.2864 24.5598 28.7305 24.6841 28.2748 24.764L27.4463 24.9092L25.5061 22.9819C23.4212 20.9107 23.2971 20.8345 22.7342 21.2773C22.5205 21.4453 22.4512 21.5962 22.4512 21.8932C22.4512 22.2509 22.5605 22.3963 23.6579 23.4967C24.4493 24.2904 24.7978 24.7069 24.6705 24.7069C24.5637 24.7069 24.1053 24.5831 23.6517 24.4317C18.7628 22.7996 16.0949 17.5759 17.6231 12.628C17.7463 12.2292 17.8615 11.9197 17.8792 11.9402C17.8968 11.9607 18.2391 12.4125 18.6397 12.9442ZM30.7571 12.0514C30.4587 12.1957 30.2605 12.6701 30.3499 13.0261C30.3879 13.1779 30.7723 13.6445 31.204 14.0631C31.8669 14.7059 32.0461 14.8241 32.3575 14.8241C32.8229 14.8241 33.1934 14.4572 33.1934 13.9963C33.1934 13.6255 32.4888 12.7596 31.7539 12.2272C31.3068 11.9033 31.1285 11.8718 30.7571 12.0514ZM10.5811 17.4378C10.3447 17.5741 9.54776 18.0643 8.8101 18.527L7.46894 19.3685L5.44629 18.6974C3.6503 18.1016 3.38948 18.0406 3.1176 18.1532C2.94916 18.2229 2.75279 18.4217 2.68104 18.5946C2.56438 18.8764 2.61862 19.1232 3.20031 20.9554L3.84989 23.0016L2.9425 24.4475C1.72111 26.394 1.65301 26.5448 1.81726 26.9412C2.0249 27.4424 2.29571 27.4996 4.48991 27.504L6.49902 27.5081L7.68066 29.1094C8.95898 30.8418 9.2226 31.059 9.77077 30.8319C10.1549 30.6727 10.2757 30.3736 10.7849 28.3197C10.9881 27.5003 11.1945 26.7916 11.2436 26.7446C11.2928 26.6977 12.0994 26.4583 13.0361 26.2129C15.0795 25.6772 15.2036 25.6248 15.3671 25.2301C15.5898 24.6923 15.3657 24.4221 13.6408 23.1493L12.0394 21.9677L12.0353 19.9586C12.031 17.8202 11.9715 17.5074 11.531 17.3066C11.1685 17.1415 11.0715 17.1549 10.5811 17.4378ZM19.2624 17.508C18.9705 17.6286 18.7988 17.9378 18.7988 18.3434C18.7988 18.59 18.9733 18.8239 19.6458 19.4784C20.4869 20.2967 20.7369 20.4178 21.211 20.2359C21.4638 20.1389 21.714 19.5933 21.6404 19.2998C21.5545 18.9578 20.1009 17.5367 19.7656 17.467C19.6179 17.4364 19.3915 17.4548 19.2624 17.508ZM30.5567 18.3105C30.09 18.777 30.1922 19.0601 31.1861 20.0541C32.18 21.0479 32.4631 21.1501 32.9296 20.6834C33.42 20.1932 33.3067 19.8399 32.3535 18.8866C31.4003 17.9334 31.047 17.8201 30.5567 18.3105ZM10.3125 21.0495C10.3125 21.8152 10.3643 22.5519 10.4278 22.6877C10.4911 22.8234 11.0247 23.2911 11.6135 23.7271C12.2023 24.163 12.67 24.5324 12.653 24.5477C12.636 24.5632 12.1387 24.704 11.5479 24.8609C9.67979 25.3566 9.78248 25.2547 9.34817 27.0433C9.2154 27.5898 9.07393 28.037 9.03375 28.037C8.99347 28.037 8.62426 27.5811 8.21315 27.0239C7.80216 26.4667 7.35475 25.9591 7.21907 25.896C7.0834 25.8328 6.34616 25.7811 5.58089 25.7811C4.81562 25.7811 4.18945 25.7543 4.18945 25.7215C4.18945 25.6888 4.50366 25.1469 4.8877 24.5174C5.27173 23.8879 5.58594 23.2561 5.58594 23.1134C5.58594 22.9708 5.40944 22.3034 5.19374 21.6304C4.97793 20.9574 4.83184 20.3763 4.869 20.3393C4.90617 20.3021 5.50569 20.4721 6.20114 20.7172C6.8967 20.9622 7.54005 21.1625 7.63071 21.1623C7.72138 21.1621 8.32563 20.8268 8.97349 20.4171C9.62135 20.0075 10.1877 19.6692 10.2319 19.6652C10.2762 19.6613 10.3125 20.2843 10.3125 21.0495ZM45.1563 22.4693C44.7494 22.6663 44.6877 23.0116 44.6834 25.1148L44.6793 27.1239L43.078 28.3056C41.353 29.5784 41.1289 29.8486 41.3516 30.3863C41.5151 30.7811 41.6393 30.8334 43.6827 31.3691C44.6194 31.6146 45.4259 31.8539 45.4751 31.9009C45.5242 31.9478 45.7307 32.6566 45.9338 33.476C46.4431 35.5299 46.5638 35.829 46.948 35.9882C47.4962 36.2152 47.7598 35.998 49.0381 34.2656L50.2197 32.6643L52.2288 32.6602C54.423 32.6558 54.6938 32.5987 54.9015 32.0974C55.0657 31.7011 54.9976 31.5502 53.7763 29.6037L52.8689 28.1578L53.5184 26.1117C54.1001 24.2795 54.1544 24.0326 54.0377 23.7509C53.966 23.5779 53.7696 23.3792 53.6012 23.3095C53.3293 23.1969 53.0683 23.2578 51.2715 23.854L49.248 24.5254L47.7579 23.5905C45.6141 22.2451 45.6168 22.2463 45.1563 22.4693ZM47.8002 25.608C48.4143 25.9987 48.9946 26.3183 49.0899 26.3183C49.185 26.3183 49.8372 26.1253 50.5391 25.8895C51.2409 25.6537 51.8381 25.4838 51.8662 25.5119C51.8943 25.54 51.7408 26.1136 51.525 26.7866C51.3093 27.4596 51.1328 28.1291 51.1328 28.2744C51.1328 28.4971 51.8242 29.7637 52.3749 30.55C52.4599 30.6712 52.5293 30.8079 52.5293 30.8539C52.5293 30.8998 51.9031 30.9374 51.1379 30.9374C50.3726 30.9374 49.6354 30.9891 49.4997 31.0522C49.364 31.1154 48.9166 31.623 48.5056 32.1802C48.0945 32.7374 47.7253 33.1932 47.685 33.1932C47.6448 33.1932 47.5033 32.7461 47.3706 32.1996C46.9363 30.4109 47.039 30.5129 45.1709 30.0171C44.5801 29.8603 44.0827 29.7194 44.0657 29.704C44.0488 29.6886 44.5165 29.3193 45.1053 28.8834C45.694 28.4473 46.2276 27.9796 46.291 27.844C46.3546 27.7079 46.4062 26.9682 46.4062 26.1943C46.4062 25.0924 46.436 24.8027 46.5449 24.8445C46.6212 24.8739 47.186 25.2174 47.8002 25.608ZM22.8125 28.4849C22.5798 28.5976 22.3438 28.9952 22.3438 29.2747C22.3438 29.3591 23.1628 31.066 24.164 33.0677C25.7756 36.29 26.0219 36.7228 26.3125 36.8431C26.8706 37.0743 27.5 36.6474 27.5 36.0376C27.5 35.9531 26.6822 34.2489 25.6826 32.2504C24.2223 29.3305 23.8098 28.5914 23.5829 28.488C23.2497 28.3362 23.1207 28.3356 22.8125 28.4849ZM14.2142 29.3415C13.8604 29.5199 13.6937 30.0051 13.8536 30.391C13.9946 30.7315 14.295 30.8834 15.0318 30.9868C15.2935 31.0235 15.8253 31.1804 16.2134 31.3353C19.0822 32.4808 21.6892 35.3939 23.6846 39.6836C24.1929 40.7763 24.3631 41.0445 24.6143 41.1486C25.0328 41.322 25.5045 41.1216 25.681 40.6955C25.8352 40.3233 25.695 39.9142 24.7891 38.0933C22.6078 33.7088 19.6034 30.6578 16.4355 29.6102C15.4689 29.2905 14.5386 29.1779 14.2142 29.3415ZM30.5283 29.3526C30.3572 29.435 29.9824 30.0672 29.3198 31.3915C28.7915 32.4472 28.3594 33.3789 28.3594 33.4619C28.3594 34.0683 28.9899 34.4957 29.5451 34.2657C29.823 34.1507 30.0143 33.8451 30.8342 32.2066C31.3636 31.1484 31.7969 30.2147 31.7969 30.1316C31.7969 29.839 31.5553 29.4558 31.2966 29.3379C30.9809 29.194 30.8525 29.1965 30.5283 29.3526ZM40.0684 31.8654C39.9207 31.8871 39.4373 31.9584 38.9941 32.024C35.6134 32.5239 32.2133 34.8537 29.9633 38.2122C29.218 39.3246 28.3594 40.9306 28.3594 41.2123C28.3594 41.5117 28.6196 41.8871 28.9104 42.0076C29.441 42.2274 29.75 42.0065 30.2359 41.0599C31.3128 38.9626 33.2227 36.6943 34.8711 35.5547C36.5603 34.3869 38.4873 33.6907 40.3906 33.5605C41.5252 33.4829 41.8409 33.3673 42.0058 32.9692C42.1718 32.5685 41.9938 32.0913 41.6136 31.9182C41.3612 31.8031 40.6567 31.779 40.0684 31.8654ZM3.04229 37.9401C2.9136 38.0023 2.75064 38.1924 2.68018 38.3625C2.51066 38.7716 2.70531 39.2579 3.09762 39.4058C3.25499 39.4651 4.16453 39.5417 5.11887 39.576C10.768 39.7792 15.8709 41.2287 20.4421 43.9287C22.4843 45.1349 24.8916 47.14 26.1572 48.6892C27.0018 49.7229 27.3496 49.9467 27.7956 49.7434C27.9529 49.6718 28.1548 49.5085 28.2444 49.3805C28.68 48.7587 30.0723 47.3043 30.9632 46.5406C35.9981 42.2246 42.461 39.8539 49.9512 39.5755C50.8669 39.5415 51.745 39.4651 51.9024 39.4057C52.2966 39.2572 52.4893 38.7718 52.3183 38.3587C52.0893 37.8059 51.7933 37.7599 49.3733 37.9003C44.4966 38.1833 40.454 39.1263 36.659 40.8662C33.5512 42.291 31.2112 43.8866 28.8681 46.1786L27.4969 47.52L26.1826 46.2302C22.1708 42.2933 17.1843 39.769 10.957 38.5228C8.3065 37.9924 3.64418 37.6491 3.04229 37.9401ZM0.468789 41.3756C0.0674609 41.5699 0 41.9229 0 43.828C0 45.7931 0.0678906 46.1109 0.524219 46.2827C0.679014 46.341 1.69995 46.4148 2.79297 46.4467C11.3425 46.6962 17.9179 49.1157 20.8135 53.0779C21.5284 54.0561 22.4122 54.6479 23.5038 54.8793C24.2709 55.0418 30.7291 55.0418 31.4962 54.8793C32.6513 54.6344 33.4217 54.0922 34.3862 52.8454C37.3507 49.0134 43.7782 46.6996 52.1533 46.4495C53.2759 46.416 54.321 46.3409 54.4758 46.2827C54.6306 46.2245 54.8119 46.0569 54.8786 45.9104C55.042 45.5518 55.042 42.1042 54.8786 41.7456C54.6609 41.2676 54.3168 41.2123 52.067 41.2934C42.4561 41.6403 35.6385 43.5809 31.4925 47.1503C30.6193 47.9019 30.2292 48.4469 30.0388 49.1808C29.8713 49.8267 29.656 50.0983 29.0576 50.419C28.6966 50.6126 28.4479 50.6493 27.5 50.6493C26.4963 50.6493 26.3193 50.6198 25.8929 50.3807C25.3438 50.0731 24.9219 49.5141 24.9219 49.0943C24.9219 48.6673 24.3412 47.8676 23.5144 47.1561C19.594 43.7818 13.1861 41.8325 4.45801 41.3589C2.03425 41.2274 0.76377 41.2327 0.468789 41.3756ZM4.99694 43.0785C10.6306 43.439 15.1904 44.4548 18.7848 46.1497C21.0682 47.2265 23.0846 48.7898 23.3206 49.6663C23.6351 50.8339 24.4694 51.7117 25.65 52.1171C26.9816 52.5743 29.047 52.4242 30.0781 51.7953C30.8723 51.3109 31.4396 50.5566 31.6794 49.6663C31.768 49.3373 31.978 49.0544 32.4873 48.5779C34.7149 46.494 38.8285 44.7426 43.6133 43.8408C45.9688 43.3968 50.3324 42.9686 52.5006 42.9686H53.2812V43.828V44.6874L52.9858 44.6878C52.8234 44.6879 51.917 44.7361 50.9717 44.7945C42.155 45.3401 36.2373 47.6764 32.9565 51.9068C32.4787 52.5227 32.1741 52.8044 31.766 53.0079L31.2175 53.2811H27.5H23.7825L23.234 53.0079C22.8259 52.8044 22.5213 52.5227 22.0435 51.9068C18.7627 47.6764 12.845 45.3401 4.02832 44.7945C3.08301 44.7361 2.17658 44.6879 2.01416 44.6878L1.71875 44.6874V43.828V42.9686H2.49938C2.92875 42.9686 4.0526 43.0181 4.99694 43.0785Z" fill="#0D5EF4"/>
</svg>
