<svg width="53" height="53" viewBox="0 0 53 53" fill="none" xmlns="http://www.w3.org/2000/svg">
<path fill-rule="evenodd" clip-rule="evenodd" d="M26.56 0.877975C25.9619 1.09239 25.6354 1.35686 25.2647 1.92716L24.9424 2.42281L13.7705 2.45697C3.11266 2.48952 2.58135 2.50037 2.22267 2.69136C1.69641 2.97163 1.27564 3.38488 1.00429 3.88761C0.778064 4.30688 0.771726 4.43418 0.741433 9.12518L0.710388 13.933L0.978298 14.2009C1.33129 14.5539 1.82328 14.5556 2.1738 14.2049L2.43752 13.9413V9.31242V4.6835L2.70124 4.41989L2.96485 4.15617H13.8731H24.7813V5.01554V5.87492H14.8498C7.80002 5.87492 4.84237 5.90951 4.65653 5.99416C4.51259 6.05979 4.34114 6.23124 4.27551 6.37518C4.10642 6.74643 4.10642 30.7847 4.27551 31.1559C4.34114 31.2998 4.51259 31.4713 4.65653 31.5369C5.02918 31.7067 44.5334 31.7067 44.906 31.5369C45.0499 31.4713 45.2214 31.2998 45.287 31.1559C45.3695 30.9747 45.4063 29.1602 45.4063 25.2595V19.6249H46.2656H47.125V26.2362V32.8476L46.8613 33.1112L46.5977 33.3749H24.7813H2.96485L2.70124 33.1112L2.43752 32.8476V26.9296V21.0116L2.1738 20.748C1.8236 20.3977 1.33129 20.3991 0.97905 20.7513L0.712 21.0184L0.742185 27.1161C0.772048 33.1298 0.775701 33.2197 1.00429 33.6435C1.27564 34.1462 1.69641 34.5595 2.22267 34.8397C2.58597 35.0332 3.34351 35.04 24.7813 35.04C46.219 35.04 46.9766 35.0332 47.3399 34.8397C47.8661 34.5595 48.2869 34.1462 48.5582 33.6435C48.7878 33.218 48.7904 33.1471 48.8199 26.4333L48.8499 19.6527L49.6256 19.6025C50.766 19.5285 51.5057 19.0829 51.9957 18.1747C52.227 17.7461 52.2276 17.726 52.2276 10.1718C52.2276 2.61757 52.227 2.59748 51.9957 2.16886C51.7244 1.66613 51.3036 1.25288 50.7774 0.972614C50.4179 0.781188 49.8863 0.771413 38.6924 0.749284C28.8321 0.729841 26.9166 0.750143 26.56 0.877975ZM50.2988 2.70114L50.5625 2.96475V10.1718V17.3788L50.2988 17.6424L50.0352 17.9062H42.5195C38.3859 17.9062 34.9183 17.939 34.8137 17.9791C34.7092 18.0193 33.5813 18.9446 32.3074 20.0355L29.9912 22.0188L29.9359 20.2578C29.9055 19.2894 29.8423 18.4189 29.7957 18.3235C29.6453 18.0162 29.1989 17.9062 28.1014 17.9062C27.1043 17.9062 27.0084 17.8873 26.7637 17.6424L26.5 17.3788V10.1718V2.96475L26.7637 2.70114L27.0274 2.43742H38.5313H50.0352L50.2988 2.70114ZM34.6979 5.11964C34.5689 5.17388 34.4117 5.3145 34.3488 5.43213C34.185 5.73828 34.1914 14.4717 34.3558 14.8323C34.528 15.2103 35.0186 15.3966 35.394 15.2264C35.5539 15.154 37.241 14.124 39.1435 12.9374C41.8353 11.2584 42.6302 10.7126 42.7282 10.4759C42.9924 9.83825 42.8663 9.73083 39.0456 7.33833C37.0888 6.11297 35.3629 5.09031 35.2102 5.06571C35.0576 5.04111 34.827 5.06539 34.6979 5.11964ZM38.1666 8.78777C39.3124 9.50374 40.25 10.1259 40.25 10.1706C40.25 10.2497 36.1403 12.8573 36.0157 12.8573C35.9813 12.8573 35.9531 11.6488 35.9531 10.1718C35.9531 8.69474 35.9824 7.48625 36.0181 7.48625C36.0539 7.48625 37.0207 8.07191 38.1666 8.78777ZM24.8041 12.6694C24.8327 17.3812 24.8494 17.772 25.0352 18.121C25.5424 19.0731 26.2783 19.5264 27.44 19.6024L28.2188 19.6532V21.8342C28.2188 23.0337 28.263 24.1317 28.3172 24.274C28.4346 24.5828 28.9693 24.8302 29.2956 24.7266C29.4238 24.6859 30.8496 23.5214 32.4641 22.1388L35.3994 19.6249H39.5435H43.6875V24.7812V29.9374H35.1147H26.5419L26.4073 29.1365C25.976 26.5697 23.7782 24.7812 21.0554 24.7812H20.4844V23.6965V22.612L20.9178 22.1196C21.718 21.2105 22.2031 19.8665 22.2031 18.5584C22.2031 17.9702 22.2218 17.9245 22.5114 17.8045C22.9859 17.608 23.0625 17.2996 23.0625 15.5859C23.0625 13.195 22.6907 12.0332 21.5518 10.8657C20.4553 9.74168 19.2367 9.32477 17.0469 9.32477C15.3437 9.32477 14.4963 9.50535 13.5623 10.0672C12.3412 10.8017 11.4021 12.1557 11.1477 13.5485C10.993 14.3952 10.9965 17.0676 11.1527 17.4104C11.2194 17.5569 11.4127 17.7343 11.5823 17.8045C11.872 17.9245 11.8906 17.9702 11.8906 18.5584C11.8906 19.8665 12.3758 21.2105 13.1759 22.1196L13.6094 22.612V23.6965V24.7812H13.0383C10.3156 24.7812 8.11777 26.5697 7.68647 29.1365L7.55187 29.9374H6.71344H5.87502V18.7655V7.59367H15.3242H24.7733L24.8041 12.6694ZM19.3159 11.3161C20.0274 11.6428 20.6475 12.2466 20.9897 12.9462C21.2433 13.4647 21.2925 13.717 21.3277 14.6821L21.3687 15.8114L20.7254 15.1992C20.3716 14.8626 19.966 14.5579 19.8241 14.5223C19.6387 14.4758 19.1886 14.6399 18.2258 15.1053C16.4782 15.9499 15.5438 16.1874 13.9682 16.1874H12.75V15.007C12.75 13.3534 13.1139 12.4688 14.1047 11.713C14.8459 11.1477 15.4255 11.0254 17.208 11.0582C18.5825 11.0836 18.8924 11.1215 19.3159 11.3161ZM1.02879 16.3906C0.81448 16.5641 0.771834 16.7121 0.736921 17.4046C0.698787 18.1585 0.715222 18.2347 0.970994 18.4904C1.14749 18.6669 1.36512 18.7655 1.57814 18.7655C1.79116 18.7655 2.0088 18.6669 2.18529 18.4904C2.44106 18.2347 2.4575 18.1585 2.41936 17.4046C2.38445 16.7121 2.3418 16.5641 2.1275 16.3906C1.98957 16.2788 1.74228 16.1874 1.57814 16.1874C1.414 16.1874 1.16672 16.2788 1.02879 16.3906ZM20.4613 18.5507C20.4308 19.4002 20.3653 19.8012 20.1961 20.1751C19.8757 20.8835 19.2715 21.5052 18.5681 21.8507C18.0471 22.1066 17.8291 22.1492 17.0469 22.1483C15.9898 22.1471 15.414 21.9371 14.7005 21.2924C14.0307 20.6873 13.6864 19.8875 13.6296 18.804L13.5824 17.9062H14.2823C15.6252 17.9062 17.5526 17.4038 18.9268 16.6956L19.4639 16.4189L19.9828 16.9208L20.5018 17.4228L20.4613 18.5507ZM17.0469 23.9173C17.2537 23.9173 17.725 23.854 18.0943 23.7767L18.7656 23.6359V24.6143C18.7656 25.7494 18.6546 25.9846 17.9725 26.2943C17.4085 26.5505 16.6853 26.5505 16.1212 26.2943C15.4392 25.9846 15.3281 25.7494 15.3281 24.6143V23.6359L15.9995 23.7767C16.3688 23.854 16.8401 23.9173 17.0469 23.9173ZM14.4344 27.1273C15.2064 27.8993 15.867 28.1606 17.0469 28.1606C18.2268 28.1606 18.8874 27.8993 19.6594 27.1273L20.2867 26.4999H21.1334C22.1828 26.4999 22.9555 26.7675 23.6363 27.3667C24.1966 27.8599 24.6403 28.6877 24.741 29.4272L24.8105 29.9374H17.0469H9.2833L9.3528 29.4272C9.51254 28.2533 10.3876 27.1511 11.4993 26.7236C11.8803 26.577 12.3241 26.5094 12.9294 26.5055L13.807 26.4999L14.4344 27.1273ZM7.40589 36.9784C5.78532 37.4147 4.61646 38.6289 4.27701 40.2283C4.00115 41.5289 4.20375 43.1457 4.76213 44.0987C4.91198 44.3544 5.01822 44.5773 4.99824 44.5938C4.97826 44.6105 4.67866 44.7117 4.33233 44.8187C2.61788 45.3488 1.24793 46.8474 0.876785 48.5987C0.693308 49.465 0.669568 51.411 0.838005 51.7809C0.90364 51.9248 1.07509 52.0963 1.21903 52.1619C1.40229 52.2454 3.57211 52.2812 8.45314 52.2812C13.3342 52.2812 15.504 52.2454 15.6873 52.1619C16.0864 51.9801 16.1875 51.622 16.1875 50.3905C16.1875 48.5208 15.7472 47.2218 14.7572 46.1709C14.2499 45.6324 13.2167 44.9929 12.5402 44.7988C12.2125 44.7048 11.928 44.6135 11.908 44.5958C11.8881 44.5782 11.9943 44.3544 12.1442 44.0987C12.9239 42.7678 12.9505 40.5141 12.2037 39.0501C11.8985 38.4519 11.0652 37.6392 10.4277 37.3181C9.444 36.8225 8.41436 36.7068 7.40589 36.9784ZM25.4528 36.9784C25.1426 37.062 24.6888 37.2323 24.4442 37.357C23.8751 37.6474 23.039 38.4827 22.7495 39.0501C22.0027 40.5141 22.0292 42.7678 22.809 44.0987C22.9589 44.3544 23.0651 44.5773 23.0451 44.5938C23.0251 44.6105 22.7255 44.7117 22.3792 44.8187C21.6618 45.0405 20.699 45.6368 20.196 46.1709C19.206 47.2218 18.7656 48.5208 18.7656 50.3905C18.7656 51.622 18.8667 51.9801 19.2659 52.1619C19.4492 52.2454 21.619 52.2812 26.5 52.2812C31.3811 52.2812 33.5509 52.2454 33.7341 52.1619C34.1333 51.9801 34.2344 51.622 34.2344 50.3905C34.2344 48.5208 33.7941 47.2218 32.8041 46.1709C32.2968 45.6324 31.2635 44.9929 30.5871 44.7988C30.2594 44.7048 29.9749 44.6135 29.9549 44.5958C29.9349 44.5782 30.0412 44.3544 30.191 44.0987C30.9708 42.7678 30.9973 40.5141 30.2505 39.0501C29.9454 38.4519 29.1121 37.6392 28.4745 37.3181C27.4909 36.8225 26.4612 36.7068 25.4528 36.9784ZM43.4996 36.9784C43.1895 37.062 42.7357 37.2323 42.4911 37.357C41.9219 37.6474 41.0859 38.4827 40.7964 39.0501C40.0496 40.5141 40.0761 42.7678 40.8559 44.0987C41.0057 44.3544 41.112 44.5773 41.092 44.5938C41.072 44.6105 40.7724 44.7117 40.4261 44.8187C39.7087 45.0405 38.7459 45.6368 38.2428 46.1709C37.2528 47.2218 36.8125 48.5208 36.8125 50.3905C36.8125 51.622 36.9136 51.9801 37.3128 52.1619C37.496 52.2454 39.6659 52.2812 44.5469 52.2812C49.4279 52.2812 51.5977 52.2454 51.781 52.1619C52.1802 51.9801 52.2813 51.622 52.2813 50.3905C52.2813 48.5208 51.8409 47.2218 50.8509 46.1709C50.3437 45.6324 49.3104 44.9929 48.634 44.7988C48.3062 44.7048 48.0218 44.6135 48.0018 44.5958C47.9818 44.5782 48.0881 44.3544 48.2379 44.0987C49.0177 42.7678 49.0442 40.5141 48.2974 39.0501C47.9922 38.4519 47.159 37.6392 46.5214 37.3181C45.5378 36.8225 44.5081 36.7068 43.4996 36.9784ZM9.80591 38.9127C10.1275 39.1116 10.4519 39.4366 10.6525 39.7609C10.9656 40.2675 10.9776 40.3326 10.9776 41.539C10.9776 42.7453 10.9656 42.8104 10.6525 43.317C10.451 43.6429 10.1274 43.9665 9.8015 44.168C9.33604 44.4557 9.18114 44.4931 8.45314 44.4931C7.72514 44.4931 7.57024 44.4557 7.10478 44.168C6.77919 43.9667 6.4551 43.6427 6.25379 43.3173C5.96278 42.8469 5.92475 42.685 5.89081 41.7696C5.84784 40.6104 5.95311 40.1486 6.40138 39.5298C7.13937 38.5111 8.69903 38.2283 9.80591 38.9127ZM27.8528 38.9127C28.1747 39.1118 28.4986 39.4364 28.6994 39.7614C29.0125 40.2682 29.0244 40.3335 29.0244 41.5395C29.0244 42.7458 29.0125 42.8109 28.6994 43.3172C28.498 43.6428 28.1741 43.9666 27.8484 44.168C27.3829 44.4557 27.228 44.4931 26.5 44.4931C25.772 44.4931 25.6171 44.4557 25.1517 44.168C24.8261 43.9667 24.502 43.6427 24.3007 43.3173C24.0097 42.8469 23.9716 42.685 23.9377 41.7696C23.8947 40.6104 24 40.1486 24.4483 39.5298C25.1862 38.5111 26.7459 38.2283 27.8528 38.9127ZM45.8997 38.9127C46.2213 39.1116 46.5457 39.4366 46.7462 39.7609C47.0594 40.2675 47.0713 40.3326 47.0713 41.539C47.0713 42.7453 47.0594 42.8104 46.7462 43.317C46.5447 43.6429 46.2212 43.9665 45.8953 44.168C45.4298 44.4557 45.2749 44.4931 44.5469 44.4931C43.8189 44.4931 43.664 44.4557 43.1985 44.168C42.8729 43.9667 42.5488 43.6427 42.3475 43.3173C42.0565 42.8469 42.0185 42.685 41.9846 41.7696C41.9416 40.6104 42.0469 40.1486 42.4951 39.5298C43.2331 38.5111 44.7928 38.2283 45.8997 38.9127ZM12.2516 46.4839C13.5833 46.9823 14.3674 48.1173 14.4486 49.6646L14.4957 50.5624H8.46657H2.43752V49.8145C2.43752 48.7625 2.75054 47.9796 3.45136 47.2786C4.41043 46.3197 4.61754 46.2777 8.4222 46.2711C11.4303 46.266 11.7104 46.2815 12.2516 46.4839ZM30.2985 46.4839C31.6302 46.9823 32.4142 48.1173 32.4954 49.6646L32.5426 50.5624H26.5134H20.4844V49.8145C20.4844 48.7625 20.7974 47.9796 21.4982 47.2786C22.4573 46.3197 22.6644 46.2777 26.4691 46.2711C29.4772 46.266 29.7573 46.2815 30.2985 46.4839ZM48.3798 46.4969C49.7053 46.9928 50.5625 48.2958 50.5625 49.8145V50.5624H44.5335H38.5043L38.5515 49.6646C38.6098 48.5533 38.9616 47.7614 39.6767 47.132C40.6006 46.3187 40.8324 46.2775 44.516 46.2711C47.5833 46.2659 47.7954 46.2782 48.3798 46.4969Z" fill="#0D5EF4"/>
</svg>
