<svg width="55" height="55" viewBox="0 0 55 55" fill="none" xmlns="http://www.w3.org/2000/svg">
<path fill-rule="evenodd" clip-rule="evenodd" d="M4.71785 1.05622C3.41074 1.3975 2.30698 2.24549 1.5705 3.47429C0.83337 4.70427 0.859366 4.15889 0.859366 18.364V31.1535L2.85774 35.1543C3.95688 37.3548 4.97448 39.3124 5.11918 39.5044C5.26388 39.6965 5.52223 39.9261 5.69335 40.0146L6.00455 40.1755L6.03731 44.6068C6.06954 48.9538 6.07481 49.0497 6.31919 49.6559C6.78669 50.8155 7.6191 51.6389 8.82169 52.1316L9.39941 52.3681L24.0356 52.3968L38.6719 52.4256V53.283V54.1406H44.6875H50.7031V52.0473V49.9541L51.351 48.3315C52.2976 45.9606 52.4461 45.3528 53.2986 40.3607C53.9942 36.2879 54.0727 35.6826 54.0686 34.4287C54.0634 32.8335 53.8506 31.8421 53.2341 30.5409C52.6487 29.3054 52.0469 28.5131 50.4697 26.9021L48.9904 25.3913L48.9605 16.5359C48.9307 7.6892 48.9304 7.68007 48.6941 7.10289C48.2016 5.90052 47.3787 5.06854 46.2185 4.60007L45.6006 4.35053L29.0963 4.32206L12.592 4.29349L12.2922 3.67753C12.1243 3.33249 11.7041 2.77218 11.3374 2.40394C10.1661 1.2281 9.08337 0.85964 6.82128 0.867053C5.86028 0.870275 5.20426 0.92925 4.71785 1.05622ZM9.15191 2.86639C9.79633 3.16223 10.5193 3.88496 10.8542 4.56817C11.0789 5.02643 11.1217 5.28972 11.1551 6.4184L11.194 7.73432H6.88605H2.57812V6.62347C2.57812 4.95123 2.92788 4.07403 3.9022 3.30231C4.67123 2.69322 5.21769 2.57162 7.03612 2.60514C8.41864 2.63071 8.7191 2.66777 9.15191 2.86639ZM45.8309 6.25415C46.2628 6.49059 46.7906 7.01835 47.027 7.4503C47.1992 7.76483 47.2138 8.89211 47.2402 23.8731C47.2682 39.8679 47.2671 39.9594 47.0522 40.1743C46.786 40.4405 46.2811 40.4549 46.0599 40.2026C45.5194 39.5862 45.5469 40.348 45.5469 25.9705V12.6138L45.3052 12.1345C45.1286 11.7843 44.9343 11.5901 44.5841 11.4135L44.1048 11.1718H28.4977H12.8906V8.5923V6.01288L29.1919 6.04103C44.3775 6.06735 45.5163 6.08195 45.8309 6.25415ZM22.3437 8.59369V9.45307H27.5H32.6562V8.59369V7.73432H27.5H22.3437V8.59369ZM4.29687 19.7656V30.0781H3.43749H2.57812V19.7656V9.45307H3.43749H4.29687V19.7656ZM7.73437 19.7656V30.0781H6.87499H6.01562V19.7656V9.45307H6.87499H7.73437V19.7656ZM11.1719 19.7656V30.0781H10.3125H9.45312V19.7656V9.45307H10.3125H11.1719V19.7656ZM43.8183 23.5522L43.8087 34.2138L43.5065 33.0509C43.34 32.4099 43.0653 31.6624 42.8947 31.3858C42.5268 30.7893 41.6659 30.2288 40.9535 30.122C39.6073 29.9201 38.1833 30.8263 37.812 32.121C37.7551 32.3193 37.5841 34.1523 37.4319 36.1943C37.2798 38.2363 37.133 40.0159 37.1059 40.1489L37.0565 40.3906H24.1142H11.1719V37.4889V34.5872L12.0312 32.871L12.8906 31.1549V22.0227V12.8906H28.3594H43.8281L43.8183 23.5522ZM21.7016 14.8194C20.9097 15.0928 20.1718 15.8587 19.9362 16.6519C19.68 17.5149 19.6817 27.1775 19.9384 28.0444C20.2684 29.1594 21.5359 30.0871 22.7124 30.0745C23.3375 30.0679 24.1334 29.6864 29.165 26.9817C34.5226 24.102 34.8452 23.8864 35.1075 23.0107C35.267 22.4783 35.267 22.2091 35.1075 21.6767C34.8452 20.801 34.5226 20.5854 29.165 17.7056C26.3882 16.213 23.8745 14.9073 23.5791 14.8041C22.8903 14.5633 22.4328 14.5671 21.7016 14.8194ZM28.1944 19.1119C31.6167 20.9584 33.3807 21.9676 33.4476 22.1178C33.5105 22.2585 33.5105 22.4289 33.4476 22.5696C33.3807 22.7196 31.6118 23.7337 28.1944 25.5816C23.3221 28.216 23.0164 28.365 22.5728 28.3215C22.2507 28.2899 22.0149 28.1868 21.8208 27.9927L21.5381 27.71V22.3525C21.5381 17.1464 21.5441 16.9884 21.7529 16.7564C22.0152 16.4647 22.2954 16.3432 22.7197 16.3369C22.9426 16.3335 24.631 17.1894 28.1944 19.1119ZM51.3956 30.6509C52.0125 31.7547 52.3259 32.8474 52.3868 34.1064C52.4339 35.0765 52.365 35.623 51.6759 39.746C50.8132 44.9081 50.7154 45.3294 49.8871 47.4536L49.2902 48.9843H44.6871H40.0839L39.7672 48.1518C38.568 44.9995 38.4952 43.9229 39.0272 37.2137C39.4191 32.2724 39.4349 32.1879 40.0212 31.9208C40.5132 31.6966 40.9213 31.7687 41.2962 32.1459C41.6047 32.4564 41.6946 32.7036 42.1075 34.3749C42.829 37.2949 43.7952 39.9047 44.5993 41.105C45.0088 41.7163 45.719 42.0573 46.5674 42.0501C47.533 42.0421 48.243 41.6146 48.6994 40.7665C48.9274 40.3429 48.9311 40.2491 48.9626 34.1064L48.9944 27.8759L49.9898 28.8964C50.5953 29.517 51.1461 30.2046 51.3956 30.6509ZM8.94286 35.1818C7.89099 37.2868 7.18018 38.5894 7.06319 38.6266C6.95964 38.6595 6.79034 38.6595 6.68679 38.6266C6.56981 38.5894 5.85899 37.2868 4.80712 35.1818L3.11565 31.7968H6.87499H10.6343L8.94286 35.1818ZM18.8525 31.9405C17.8488 32.2732 17.0411 32.9789 16.6505 33.8647L16.4254 34.3749H14.658H12.8906V35.2343V36.0937H14.6601H16.4295L16.6584 36.6256C16.9496 37.3023 17.828 38.1402 18.5306 38.4111C18.8627 38.5393 19.3335 38.6181 19.7656 38.6181C20.1978 38.6181 20.6685 38.5393 21.0006 38.4111C21.7032 38.1402 22.5817 37.3023 22.8728 36.6256L23.1017 36.0937H29.5977H36.0937V35.2343V34.3749H29.5977H23.1017L22.878 33.8548C22.5951 33.1975 21.8027 32.4132 21.1149 32.1101C20.4683 31.8251 19.4349 31.7476 18.8525 31.9405ZM20.4455 33.6621C21.5491 34.1233 21.8182 35.5702 20.9599 36.4286C20.2631 37.1254 19.2681 37.1254 18.5713 36.4286C17.2429 35.1001 18.7087 32.9365 20.4455 33.6621ZM9.72414 41.2499C9.85283 41.4726 10.1359 41.7245 10.4183 41.8676L10.8951 42.1093H23.9077H36.9204L36.9907 43.3404C37.1088 45.4076 37.4699 46.9586 38.337 49.1214C38.5212 49.5808 38.6719 50.1254 38.6719 50.3314V50.7061L24.0893 50.6777C7.89335 50.6462 9.26244 50.7107 8.49459 49.9428C7.76917 49.2174 7.7913 49.3789 7.75671 44.5582L7.72534 40.1859L8.05427 40.0159C8.43003 39.8216 8.87873 39.2435 9.18746 38.5561L9.39941 38.0843L9.45312 39.4791C9.49694 40.618 9.54668 40.9429 9.72414 41.2499ZM20.7283 44.0698C19.0822 44.8998 19.7332 47.665 21.8066 48.6499L22.3975 48.9306H27.5H32.6025L33.1933 48.6503C33.9533 48.2898 34.552 47.6963 34.8811 46.9777C35.4717 45.6875 35.2344 44.5552 34.2716 44.0698L33.7923 43.8281H27.5H21.2076L20.7283 44.0698ZM33.474 45.8959C33.3938 46.3059 33.1356 46.6818 32.7223 46.9904C32.4328 47.2065 32.3073 47.2119 27.5 47.2119C22.6926 47.2119 22.5672 47.2065 22.2777 46.9904C21.8644 46.6818 21.6062 46.3059 21.5259 45.8959L21.4575 45.5468H27.5H33.5425L33.474 45.8959ZM48.9844 51.5624V52.4218H44.6875H40.3906V51.5624V50.7031H44.6875H48.9844V51.5624Z" fill="#0D5EF4"/>
</svg>
