<svg width="210" height="60" viewBox="0 0 210 60" fill="none" xmlns="http://www.w3.org/2000/svg">
<path d="M85.1863 37.5462H99.8492L98.9378 33.5129H86.0582L85.1863 37.5462ZM92.4385 24.5589L96.8374 35.0455L96.9563 36.2152L100.721 44.8061H105.992L92.4385 15L78.8853 44.8061H84.156L88 35.9732L88.0793 34.9245L92.4385 24.5589Z" fill="white"/>
<path d="M111.467 30.6896C111.467 28.6729 111.903 26.9251 112.775 25.4463C113.673 23.9405 114.835 22.7843 116.262 21.9776C117.715 21.1441 119.287 20.7273 120.978 20.7273C122.299 20.7273 123.488 20.9021 124.545 21.2516C125.601 21.6012 126.552 22.0852 127.398 22.7036C128.27 23.2952 129.023 23.9674 129.657 24.7203V19.0736C128.494 18.1056 127.239 17.3662 125.892 16.8553C124.545 16.3444 122.854 16.089 120.819 16.089C118.785 16.089 116.883 16.4385 115.113 17.1377C113.369 17.8368 111.85 18.8451 110.555 20.1626C109.261 21.4802 108.244 23.0397 107.504 24.8413C106.791 26.6159 106.434 28.5653 106.434 30.6896C106.434 32.8138 106.791 34.7766 107.504 36.5782C108.244 38.3528 109.261 39.8989 110.555 41.2165C111.85 42.534 113.369 43.5424 115.113 44.2415C116.883 44.9406 118.785 45.2901 120.819 45.2901C122.854 45.2901 124.545 45.0347 125.892 44.5238C127.239 44.0129 128.494 43.2735 129.657 42.3055V36.6588C129.023 37.4117 128.27 38.0974 127.398 38.7158C126.552 39.3074 125.601 39.7779 124.545 40.1275C123.488 40.477 122.299 40.6518 120.978 40.6518C119.287 40.6518 117.715 40.2485 116.262 39.4418C114.835 38.6083 113.673 37.4386 112.775 35.9329C111.903 34.4271 111.467 32.6793 111.467 30.6896Z" fill="white"/>
<path d="M138.168 37.5462H152.83L151.919 33.5129H139.039L138.168 37.5462ZM145.42 24.5589L149.819 35.0455L149.937 36.2152L153.702 44.8061H158.973L145.42 15L131.866 44.8061H137.137L140.981 35.9732L141.06 34.9245L145.42 24.5589Z" fill="white"/>
<path d="M162.2 16.573V44.8061H166.956V16.573H162.2ZM171.156 44.8061C173.983 44.8061 176.467 44.228 178.607 43.0718C180.747 41.8887 182.411 40.2485 183.6 38.1512C184.815 36.027 185.423 33.5398 185.423 30.6896C185.423 27.8394 184.815 25.3656 183.6 23.2683C182.411 21.1441 180.747 19.5039 178.607 18.3476C176.467 17.1645 173.983 16.573 171.156 16.573H165.093V21.05H171.037C172.411 21.05 173.679 21.2516 174.842 21.655C176.004 22.0583 177.008 22.6633 177.854 23.4699C178.725 24.2766 179.399 25.2849 179.875 26.4949C180.377 27.7049 180.628 29.1031 180.628 30.6896C180.628 32.276 180.377 33.6742 179.875 34.8842C179.399 36.0942 178.725 37.1025 177.854 37.9092C177.008 38.7158 176.004 39.3208 174.842 39.7242C173.679 40.1275 172.411 40.3292 171.037 40.3292H165.093V44.8061H171.156Z" fill="white"/>
<path d="M189.789 16.573V35.5295C189.789 37.0891 190.027 38.4873 190.502 39.7242C190.978 40.9342 191.665 41.9694 192.563 42.8298C193.488 43.6902 194.571 44.349 195.813 44.8061C197.054 45.2632 198.415 45.4918 199.894 45.4918C201.374 45.4918 202.735 45.2632 203.976 44.8061C205.218 44.349 206.288 43.6902 207.186 42.8298C208.085 41.9694 208.771 40.9342 209.247 39.7242C209.749 38.4873 210 37.0891 210 35.5295V16.573H205.324V35.3279C205.324 37.0756 204.861 38.4873 203.937 39.5628C203.012 40.6115 201.665 41.1358 199.894 41.1358C198.098 41.1358 196.737 40.6115 195.813 39.5628C194.914 38.4873 194.465 37.0756 194.465 35.3279V16.573H189.789Z" fill="white"/>
<rect x="0.5" y="0.5" width="59" height="59" rx="29.5" fill="white" stroke="#1B4BA3"/>
<path fill-rule="evenodd" clip-rule="evenodd" d="M45.8465 29.0081V43.1903L41.7428 42.9046C40.2863 42.8036 38.6557 43.1691 37.1048 43.8149C35.3825 44.5325 33.7772 45.5864 32.6237 46.7266L29.9233 49.4004L27.223 46.7266C26.0708 45.585 24.4655 44.5312 22.7418 43.8149C21.191 43.1691 19.5604 42.8036 18.1039 42.9046L14.0002 43.1903V29.0081H15.6175V41.4601L17.9963 41.2939C19.7119 41.1743 21.595 41.589 23.3598 42.3239C25.2694 43.1186 27.0608 44.2986 28.3579 45.5837L29.922 47.1319L31.4888 45.585C32.7858 44.3 34.5772 43.1212 36.4869 42.3252C38.2517 41.5903 40.1348 41.1757 41.8504 41.2953L44.2292 41.4614V29.0094H45.8465V29.0081Z" fill="#0D5EF4"/>
<path fill-rule="evenodd" clip-rule="evenodd" d="M30.7321 42.2545V44.3489C31.8232 43.3589 36.4558 39.4983 41.9535 39.8811L42.816 39.9409V22.6622L42.0612 22.6091C37.1109 22.2649 32.8291 24.9666 30.7334 26.5918V28.6862V42.2545H30.7321ZM40.6977 36.2704C38.7987 36.3461 37.0285 36.8498 35.4843 37.5103C34.4119 37.9688 33.4498 38.5043 32.6298 39.0266V38.0777C33.382 37.6219 34.2351 37.1674 35.168 36.7674C36.8 36.0684 38.6791 35.5368 40.6977 35.4611V36.2704ZM40.6977 31.7906C38.7987 31.8663 37.0285 32.37 35.4843 33.0305C34.4119 33.489 33.4498 34.0245 32.6298 34.5468V33.5979C33.382 33.1421 34.2351 32.6876 35.168 32.2876C36.8 31.5886 38.6791 31.057 40.6977 30.9813V31.7906ZM40.6977 27.3108C38.7987 27.3865 37.0285 27.8902 35.4843 28.5507C34.4119 29.0092 33.4498 29.5447 32.6298 30.067V29.1181C33.382 28.6623 34.2351 28.2078 35.168 27.8078C36.8 27.1088 38.6791 26.5772 40.6977 26.5015V27.3108ZM27.1081 38.9575C26.3121 38.4578 25.3885 37.9488 24.3639 37.5103C22.7905 36.8365 20.9805 36.3262 19.0402 36.2664V35.4584C21.1014 35.5182 23.0177 36.0564 24.6789 36.7674C25.5666 37.1475 26.3825 37.578 27.1081 38.0113V38.9575ZM27.1081 34.4777C26.3121 33.978 25.3885 33.469 24.3639 33.0305C22.7905 32.3567 20.9805 31.8464 19.0402 31.7866V30.9786C21.1014 31.0384 23.0177 31.5766 24.6789 32.2876C25.5666 32.6677 26.3825 33.0982 27.1081 33.5315V34.4777ZM27.1081 29.9979C26.3121 29.4982 25.3885 28.9892 24.3639 28.5507C22.7905 27.8769 20.9805 27.3666 19.0402 27.3068V26.4988C21.1014 26.5586 23.0177 27.0968 24.6789 27.8078C25.5666 28.1879 26.3825 28.6185 27.1081 29.0517V29.9979ZM29.1161 28.6876V26.5932C27.0191 24.9679 22.7386 22.2649 17.7884 22.6104L17.0336 22.6635V39.9422L17.896 39.8824C23.3925 39.4997 28.0251 43.3602 29.1175 44.3502V42.2559V28.6876H29.1161Z" fill="#0D5EF4"/>
<path fill-rule="evenodd" clip-rule="evenodd" d="M38.872 21.2059V18.7819L44.4482 16.4098L29.9244 10.9998L15.4006 16.4098L20.9767 18.7819V21.2059C23.4127 21.5727 25.7542 22.4909 27.8911 23.7468C28.5503 24.1348 29.248 24.5867 29.923 25.077C30.5981 24.5867 31.2958 24.1335 31.9563 23.7468C34.0945 22.4909 36.4361 21.5727 38.872 21.2059Z" fill="#F20F10"/>
</svg>
