<svg width="183" height="47" viewBox="0 0 183 47" fill="none" xmlns="http://www.w3.org/2000/svg">
<path d="M60.1995 30.3945H74.6259L73.7291 26.4262H61.0572L60.1995 30.3945ZM67.3347 17.6167L71.6626 27.9341L71.7796 29.0849L75.4837 37.5373H80.6694L67.3347 8.21191L54 37.5373H59.1857L62.9678 28.8468L63.0457 27.8151L67.3347 17.6167Z" fill="#0F2239"/>
<path d="M86.0561 23.6484C86.0561 21.6643 86.485 19.9447 87.3428 18.4897C88.2266 17.0082 89.3703 15.8706 90.7739 15.077C92.2036 14.2569 93.7502 13.8468 95.4138 13.8468C96.7135 13.8468 97.8832 14.0188 98.9229 14.3627C99.9627 14.7066 100.898 15.1828 101.73 15.7913C102.588 16.3733 103.329 17.0347 103.953 17.7754V12.2199C102.809 11.2675 101.574 10.54 100.249 10.0373C98.9229 9.53467 97.2593 9.28334 95.2578 9.28334C93.2563 9.28334 91.3848 9.62726 89.6432 10.3151C87.9277 11.0029 86.433 11.995 85.1593 13.2913C83.8857 14.5876 82.8849 16.122 82.1571 17.8945C81.4553 19.6405 81.1043 21.5585 81.1043 23.6484C81.1043 25.7384 81.4553 27.6696 82.1571 29.4421C82.8849 31.1881 83.8857 32.7093 85.1593 34.0056C86.433 35.3019 87.9277 36.2939 89.6432 36.9818C91.3848 37.6696 93.2563 38.0135 95.2578 38.0135C97.2593 38.0135 98.9229 37.7622 100.249 37.2595C101.574 36.7569 102.809 36.0294 103.953 35.077V29.5214C103.329 30.2622 102.588 30.9368 101.73 31.5452C100.898 32.1273 99.9627 32.5902 98.9229 32.9341C97.8832 33.2781 96.7135 33.45 95.4138 33.45C93.7502 33.45 92.2036 33.0532 90.7739 32.2595C89.3703 31.4394 88.2266 30.2886 87.3428 28.8071C86.485 27.3257 86.0561 25.6061 86.0561 23.6484Z" fill="#0F2239"/>
<path d="M112.326 30.3945H126.753L125.856 26.4262H113.184L112.326 30.3945ZM119.461 17.6167L123.789 27.9341L123.906 29.0849L127.61 37.5373H132.796L119.461 8.21191L106.127 37.5373H111.312L115.094 28.8468L115.172 27.8151L119.461 17.6167Z" fill="#0F2239"/>
<path d="M135.971 9.75953V37.5373H140.65V9.75953H135.971ZM144.783 37.5373C147.564 37.5373 150.008 36.9685 152.113 35.831C154.218 34.6669 155.856 33.0532 157.026 30.9897C158.221 28.8997 158.819 26.4527 158.819 23.6484C158.819 20.8442 158.221 18.4103 157.026 16.3468C155.856 14.2569 154.218 12.6431 152.113 11.5056C150.008 10.3415 147.564 9.75953 144.783 9.75953H138.817V14.1643H144.666C146.018 14.1643 147.265 14.3627 148.409 14.7595C149.553 15.1564 150.54 15.7516 151.372 16.5452C152.23 17.3389 152.893 18.331 153.361 19.5214C153.855 20.7119 154.101 22.0876 154.101 23.6484C154.101 25.2093 153.855 26.5849 153.361 27.7754C152.893 28.9659 152.23 29.9579 151.372 30.7516C150.54 31.5452 149.553 32.1405 148.409 32.5373C147.265 32.9341 146.018 33.1325 144.666 33.1325H138.817V37.5373H144.783Z" fill="#0F2239"/>
<path d="M163.115 9.75953V28.4103C163.115 29.9447 163.349 31.3204 163.817 32.5373C164.285 33.7278 164.96 34.7463 165.844 35.5929C166.754 36.4394 167.82 37.0876 169.041 37.5373C170.263 37.987 171.602 38.2119 173.057 38.2119C174.513 38.2119 175.852 37.987 177.073 37.5373C178.295 37.0876 179.348 36.4394 180.232 35.5929C181.115 34.7463 181.791 33.7278 182.259 32.5373C182.753 31.3204 183 29.9447 183 28.4103V9.75953H178.399V28.2119C178.399 29.9315 177.944 31.3204 177.034 32.3786C176.125 33.4103 174.799 33.9262 173.057 33.9262C171.29 33.9262 169.951 33.4103 169.041 32.3786C168.158 31.3204 167.716 29.9315 167.716 28.2119V9.75953H163.115Z" fill="#0F2239"/>
<path fill-rule="evenodd" clip-rule="evenodd" d="M38.5 21.7705V38.9159L33.5389 38.5705C31.7781 38.4484 29.8068 38.8902 27.9319 39.671C25.8498 40.5385 23.9091 41.8125 22.5146 43.191L19.25 46.4234L15.9854 43.191C14.5925 41.8109 12.6518 40.5369 10.5681 39.671C8.69318 38.8902 6.72192 38.4484 4.96111 38.5705L0 38.9159V21.7705H1.9552V36.8241L4.83098 36.6233C6.90507 36.4787 9.18158 36.98 11.3151 37.8684C13.6238 38.8291 15.7894 40.2558 17.3574 41.8093L19.2484 43.681L21.1425 41.8109C22.7106 40.2574 24.8762 38.8323 27.1849 37.87C29.3184 36.9816 31.5949 36.4803 33.669 36.6249L36.5448 36.8257V21.7721H38.5V21.7705Z" fill="#0D5EF4"/>
<path fill-rule="evenodd" clip-rule="evenodd" d="M20.2286 37.7853V40.3172C21.5476 39.1203 27.1481 34.4532 33.7945 34.9159L34.8371 34.9882V14.0995L33.9246 14.0352C27.9401 13.6191 22.7637 16.8853 20.2302 18.8502V21.3821V37.7853H20.2286ZM32.2763 30.5508C29.9805 30.6424 27.8405 31.2513 25.9737 32.0498C24.6772 32.604 23.514 33.2515 22.5227 33.8829V32.7358C23.4321 32.1847 24.4635 31.6353 25.5913 31.1517C27.5642 30.3066 29.8359 29.664 32.2763 29.5724V30.5508ZM32.2763 25.1351C29.9805 25.2267 27.8405 25.8355 25.9737 26.634C24.6772 27.1883 23.514 27.8357 22.5227 28.4671V27.32C23.4321 26.769 24.4635 26.2195 25.5913 25.7359C27.5642 24.8909 29.8359 24.2482 32.2763 24.1567V25.1351ZM32.2763 19.7193C29.9805 19.8109 27.8405 20.4198 25.9737 21.2182C24.6772 21.7725 23.514 22.42 22.5227 23.0514V21.9043C23.4321 21.3532 24.4635 20.8037 25.5913 20.3202C27.5642 19.4751 29.8359 18.8325 32.2763 18.7409V19.7193ZM15.8474 33.7993C14.8851 33.1953 13.7685 32.58 12.5298 32.0498C10.6277 31.2352 8.4395 30.6183 6.0939 30.546V29.5692C8.5857 29.6415 10.9024 30.2922 12.9106 31.1517C13.9838 31.6112 14.9702 32.1317 15.8474 32.6555V33.7993ZM15.8474 28.3836C14.8851 27.7795 13.7685 27.1642 12.5298 26.634C10.6277 25.8195 8.4395 25.2026 6.0939 25.1303V24.1535C8.5857 24.2258 10.9024 24.8764 12.9106 25.7359C13.9838 26.1954 14.9702 26.7159 15.8474 27.2397V28.3836ZM15.8474 22.9678C14.8851 22.3637 13.7685 21.7484 12.5298 21.2182C10.6277 20.4037 8.4395 19.7868 6.0939 19.7145V18.7377C8.5857 18.81 10.9024 19.4607 12.9106 20.3202C13.9838 20.7796 14.9702 21.3002 15.8474 21.8239V22.9678ZM18.275 21.3837V18.8518C15.7398 16.8869 10.565 13.6191 4.5805 14.0368L3.66797 14.1011V34.9898L4.71064 34.9175C11.3554 34.4548 16.956 39.1219 18.2766 40.3188V37.7869V21.3837H18.275Z" fill="#0D5EF4"/>
<path fill-rule="evenodd" clip-rule="evenodd" d="M30.0668 12.3385V9.40811L36.8079 6.54037L19.2497 0L1.69141 6.54037L8.4326 9.40811V12.3385C11.3775 12.7819 14.2082 13.8921 16.7916 15.4103C17.5885 15.8794 18.4319 16.4256 19.2481 17.0185C20.0642 16.4256 20.9077 15.8778 21.7061 15.4103C24.2911 13.8921 27.1219 12.7819 30.0668 12.3385Z" fill="#F20F10"/>
</svg>
