<svg width="155" height="41" viewBox="0 0 155 41" fill="none" xmlns="http://www.w3.org/2000/svg">
<path d="M50.9886 26.5348H63.2077L62.4481 23.1737H51.7151L50.9886 26.5348ZM57.0321 15.7121L60.6978 24.451L60.7969 25.4257L63.9342 32.5848H68.3265L57.0321 7.74634L45.7377 32.5848H50.1299L53.3333 25.224L53.3994 24.3501L57.0321 15.7121Z" fill="white"/>
<path d="M72.889 20.821C72.889 19.1404 73.2523 17.684 73.9788 16.4516C74.7274 15.1968 75.6961 14.2332 76.885 13.561C78.0959 12.8664 79.4059 12.5191 80.8149 12.5191C81.9157 12.5191 82.9065 12.6647 83.7871 12.956C84.6678 13.2473 85.4604 13.6507 86.1649 14.166C86.8914 14.659 87.5189 15.2192 88.0473 15.8466V11.141C87.0786 10.3344 86.0328 9.71818 84.91 9.29244C83.7871 8.8667 82.3781 8.65383 80.6828 8.65383C78.9876 8.65383 77.4024 8.94513 75.9273 9.52771C74.4742 10.1103 73.2083 10.9506 72.1295 12.0485C71.0507 13.1465 70.203 14.4461 69.5866 15.9474C68.9921 17.4263 68.6949 19.0508 68.6949 20.821C68.6949 22.5911 68.9921 24.2269 69.5866 25.7282C70.203 27.207 71.0507 28.4955 72.1295 29.5934C73.2083 30.6914 74.4742 31.5316 75.9273 32.1142C77.4024 32.6968 78.9876 32.9881 80.6828 32.9881C82.3781 32.9881 83.7871 32.7752 84.91 32.3495C86.0328 31.9238 87.0786 31.3076 88.0473 30.5009V25.7954C87.5189 26.4228 86.8914 26.9942 86.1649 27.5095C85.4604 28.0025 84.6678 28.3946 83.7871 28.6859C82.9065 28.9772 81.9157 29.1229 80.8149 29.1229C79.4059 29.1229 78.0959 28.7868 76.885 28.1145C75.6961 27.4199 74.7274 26.4452 73.9788 25.1904C73.2523 23.9356 72.889 22.4791 72.889 20.821Z" fill="white"/>
<path d="M95.1396 26.5348H107.359L106.599 23.1737H95.8661L95.1396 26.5348ZM101.183 15.7121L104.849 24.451L104.948 25.4257L108.085 32.5848H112.477L101.183 7.74634L89.8887 32.5848H94.2809L97.4843 25.224L97.5504 24.3501L101.183 15.7121Z" fill="white"/>
<path d="M115.167 9.05716V32.5848H119.13V9.05716H115.167ZM122.63 32.5848C124.986 32.5848 127.056 32.103 128.839 31.1395C130.622 30.1536 132.009 28.7868 133 27.039C134.013 25.2688 134.519 23.1961 134.519 20.821C134.519 18.4458 134.013 16.3843 133 14.6366C132.009 12.8664 130.622 11.4996 128.839 10.536C127.056 9.55012 124.986 9.05716 122.63 9.05716H117.577V12.788H122.531C123.676 12.788 124.733 12.956 125.701 13.2921C126.67 13.6282 127.507 14.1324 128.211 14.8046C128.938 15.4768 129.499 16.3171 129.896 17.3254C130.314 18.3338 130.523 19.4989 130.523 20.821C130.523 22.143 130.314 23.3082 129.896 24.3165C129.499 25.3248 128.938 26.1651 128.211 26.8373C127.507 27.5095 126.67 28.0137 125.701 28.3498C124.733 28.6859 123.676 28.854 122.531 28.854H117.577V32.5848H122.63Z" fill="white"/>
<path d="M138.157 9.05716V24.8543C138.157 26.1539 138.356 27.3191 138.752 28.3498C139.148 29.3581 139.721 30.2208 140.469 30.9379C141.24 31.6549 142.142 32.2039 143.177 32.5848C144.212 32.9657 145.346 33.1562 146.579 33.1562C147.812 33.1562 148.945 32.9657 149.98 32.5848C151.015 32.2039 151.907 31.6549 152.655 30.9379C153.404 30.2208 153.976 29.3581 154.372 28.3498C154.791 27.3191 155 26.1539 155 24.8543V9.05716H151.103V24.6862C151.103 26.1427 150.718 27.3191 149.947 28.2154C149.177 29.0893 148.054 29.5262 146.579 29.5262C145.082 29.5262 143.948 29.0893 143.177 28.2154C142.429 27.3191 142.054 26.1427 142.054 24.6862V9.05716H138.157Z" fill="white"/>
<path fill-rule="evenodd" clip-rule="evenodd" d="M32.6093 19.2305V33.7525L28.4073 33.4599C26.9159 33.3565 25.2462 33.7307 23.6582 34.3921C21.8946 35.1269 20.2508 36.206 19.0697 37.3735L16.3046 40.1114L13.5396 37.3735C12.3598 36.2046 10.716 35.1255 8.95109 34.3921C7.36308 33.7307 5.69343 33.3565 4.20203 33.4599L0 33.7525V19.2305H1.65604V31.9808L4.09181 31.8107C5.84855 31.6882 7.77675 32.1128 9.58384 32.8653C11.5393 33.679 13.3736 34.8874 14.7017 36.2032L16.3033 37.7885L17.9076 36.2046C19.2357 34.8888 21.07 33.6818 23.0254 32.8667C24.8325 32.1142 26.7607 31.6896 28.5175 31.8121L30.9532 31.9822V19.2318H32.6093V19.2305Z" fill="#0D5EF4"/>
<path fill-rule="evenodd" clip-rule="evenodd" d="M17.1333 32.7948V34.9393C18.2505 33.9256 22.9941 29.9725 28.6236 30.3644L29.5067 30.4257V12.7331L28.7338 12.6786C23.6649 12.3262 19.2806 15.0926 17.1347 16.7568V18.9014V32.7948H17.1333ZM27.3376 26.6673C25.3931 26.7448 23.5806 27.2605 21.9994 27.9368C20.9012 28.4063 19.9161 28.9547 19.0765 29.4895V28.5179C19.8467 28.0511 20.7203 27.5858 21.6755 27.1762C23.3465 26.4604 25.2706 25.9161 27.3376 25.8386V26.6673ZM27.3376 22.0801C25.3931 22.1577 23.5806 22.6734 21.9994 23.3497C20.9012 23.8192 19.9161 24.3676 19.0765 24.9023V23.9308C19.8467 23.464 20.7203 22.9986 21.6755 22.5891C23.3465 21.8733 25.2706 21.329 27.3376 21.2514V22.0801ZM27.3376 17.493C25.3931 17.5706 23.5806 18.0863 21.9994 18.7626C20.9012 19.2321 19.9161 19.7804 19.0765 20.3152V19.3436C19.8467 18.8769 20.7203 18.4115 21.6755 18.0019C23.3465 17.2862 25.2706 16.7419 27.3376 16.6643V17.493ZM13.4225 29.4187C12.6074 28.9071 11.6617 28.3859 10.6125 27.9368C9.00139 27.2469 7.14803 26.7244 5.16132 26.6632V25.8358C7.27186 25.8971 9.23408 26.4482 10.935 27.1762C11.844 27.5654 12.6795 28.0062 13.4225 28.4499V29.4187ZM13.4225 24.8316C12.6074 24.3199 11.6617 23.7988 10.6125 23.3497C9.00139 22.6598 7.14803 22.1373 5.16132 22.076V21.2487C7.27186 21.3099 9.23408 21.861 10.935 22.5891C11.844 22.9782 12.6795 23.4191 13.4225 23.8627V24.8316ZM13.4225 20.2445C12.6074 19.7328 11.6617 19.2116 10.6125 18.7626C9.00139 18.0727 7.14803 17.5502 5.16132 17.4889V16.6616C7.27186 16.7228 9.23408 17.2739 10.935 18.0019C11.844 18.3911 12.6795 18.832 13.4225 19.2756V20.2445ZM15.4786 18.9028V16.7582C13.3313 15.094 8.94831 12.3262 3.87948 12.68L3.10657 12.7344V30.427L3.9897 30.3658C9.61781 29.9739 14.3614 33.9269 15.48 34.9407V32.7961V18.9028H15.4786Z" fill="#0D5EF4"/>
<path fill-rule="evenodd" clip-rule="evenodd" d="M25.4681 11.2417V8.75963L31.1778 6.33068L16.3061 0.791016L1.43433 6.33068L7.14408 8.75963V11.2417C9.63836 11.6172 12.036 12.5575 14.2241 13.8434C14.8991 14.2408 15.6135 14.7034 16.3047 15.2056C16.996 14.7034 17.7104 14.2394 18.3867 13.8434C20.5762 12.5575 22.9738 11.6172 25.4681 11.2417Z" fill="#F20F10"/>
</svg>
