<svg width="210" height="54" viewBox="0 0 210 54" fill="none" xmlns="http://www.w3.org/2000/svg">
<path d="M69.0829 34.8792H85.6378L84.6087 30.3255H70.0672L69.0829 34.8792ZM77.2708 20.2162L82.2373 32.0559L82.3715 33.3765L86.6221 43.0759H92.5729L77.2708 9.42383L61.9688 43.0759H67.9196L72.2596 33.1032L72.3491 31.9193L77.2708 20.2162Z" fill="white"/>
<path d="M98.7545 27.1379C98.7545 24.861 99.2466 22.8877 100.231 21.218C101.245 19.5179 102.558 18.2125 104.168 17.3018C105.809 16.3607 107.584 15.8901 109.493 15.8901C110.984 15.8901 112.326 16.0875 113.52 16.4821C114.713 16.8768 115.787 17.4232 116.741 18.1215C117.725 18.7893 118.576 19.5483 119.291 20.3983V14.0231C117.979 12.9302 116.562 12.0954 115.041 11.5185C113.52 10.9417 111.611 10.6533 109.314 10.6533C107.017 10.6533 104.869 11.048 102.871 11.8373C100.902 12.6266 99.187 13.7651 97.7254 15.2526C96.2638 16.7402 95.1154 18.5009 94.2802 20.5349C93.4748 22.5386 93.0721 24.7396 93.0721 27.1379C93.0721 29.5362 93.4748 31.7523 94.2802 33.7863C95.1154 35.7899 96.2638 37.5355 97.7254 39.0231C99.187 40.5107 100.902 41.6491 102.871 42.4384C104.869 43.2277 107.017 43.6224 109.314 43.6224C111.611 43.6224 113.52 43.334 115.041 42.7572C116.562 42.1804 117.979 41.3455 119.291 40.2526V33.8774C118.576 34.7274 117.725 35.5015 116.741 36.1998C115.787 36.8677 114.713 37.3989 113.52 37.7936C112.326 38.1882 110.984 38.3856 109.493 38.3856C107.584 38.3856 105.809 37.9302 104.168 37.0195C102.558 36.0784 101.245 34.7578 100.231 33.0577C99.2466 31.3576 98.7545 29.3844 98.7545 27.1379Z" fill="white"/>
<path d="M128.9 34.8792H145.455L144.426 30.3255H129.885L128.9 34.8792ZM137.088 20.2162L142.055 32.0559L142.189 33.3765L146.44 43.0759H152.39L137.088 9.42383L121.786 43.0759H127.737L132.077 33.1032L132.167 31.9193L137.088 20.2162Z" fill="white"/>
<path d="M156.034 11.1998V43.0759H161.403V11.1998H156.034ZM166.146 43.0759C169.337 43.0759 172.141 42.4232 174.557 41.1178C176.974 39.7821 178.853 37.9302 180.195 35.5623C181.567 33.164 182.253 30.3558 182.253 27.1379C182.253 23.9199 181.567 21.1269 180.195 18.759C178.853 16.3607 176.974 14.5088 174.557 13.2034C172.141 11.8677 169.337 11.1998 166.146 11.1998H159.3V16.2544H166.012C167.563 16.2544 168.994 16.4821 170.307 16.9375C171.619 17.3929 172.753 18.0759 173.707 18.9867C174.692 19.8974 175.452 21.0359 175.989 22.402C176.556 23.7681 176.839 25.3467 176.839 27.1379C176.839 28.929 176.556 30.5076 175.989 31.8737C175.452 33.2399 174.692 34.3783 173.707 35.289C172.753 36.1998 171.619 36.8828 170.307 37.3382C168.994 37.7936 167.563 38.0213 166.012 38.0213H159.3V43.0759H166.146Z" fill="white"/>
<path d="M187.183 11.1998V32.6023C187.183 34.3631 187.451 35.9417 187.988 37.3382C188.525 38.7043 189.3 39.8731 190.315 40.8446C191.359 41.8161 192.582 42.5598 193.984 43.0759C195.385 43.592 196.922 43.8501 198.592 43.8501C200.262 43.8501 201.799 43.592 203.201 43.0759C204.603 42.5598 205.811 41.8161 206.825 40.8446C207.839 39.8731 208.615 38.7043 209.151 37.3382C209.718 35.9417 210.002 34.3631 210.002 32.6023V11.1998H204.722V32.3746C204.722 34.3479 204.2 35.9417 203.156 37.1561C202.112 38.34 200.591 38.932 198.592 38.932C196.564 38.932 195.028 38.34 193.984 37.1561C192.969 35.9417 192.462 34.3479 192.462 32.3746V11.1998H187.183Z" fill="white"/>
<path fill-rule="evenodd" clip-rule="evenodd" d="M44.1803 24.9824V44.6575L38.4872 44.2611C36.4666 44.121 34.2045 44.628 32.053 45.5239C29.6637 46.5195 27.4366 47.9815 25.8364 49.5633L22.0902 53.2726L18.3439 49.5633C16.7455 47.9796 14.5184 46.5177 12.1273 45.5239C9.97578 44.628 7.71367 44.121 5.69307 44.2611L0 44.6575V24.9824H2.24367V42.2571L5.54374 42.0266C7.92385 41.8607 10.5362 42.4359 12.9846 43.4554C15.6338 44.5579 18.119 46.195 19.9184 47.9778L22.0883 50.1256L24.2619 47.9796C26.0613 46.1969 28.5465 44.5616 31.1958 43.4573C33.6441 42.4377 36.2565 41.8625 38.6366 42.0285L41.9366 42.2589V24.9843H44.1803V24.9824Z" fill="white"/>
<path fill-rule="evenodd" clip-rule="evenodd" d="M23.2149 43.3601V46.2657C24.7285 44.8922 31.1553 39.5365 38.7823 40.0674L39.9788 40.1504V16.1798L38.9317 16.106C32.0642 15.6285 26.1241 19.3766 23.2167 21.6313V24.5369V43.3601H23.2149ZM37.0401 35.0583C34.4056 35.1634 31.9499 35.8622 29.8076 36.7784C28.3198 37.4145 26.9851 38.1575 25.8476 38.882V37.5657C26.8911 36.9333 28.0746 36.3028 29.3689 35.7479C31.6328 34.7781 34.2397 34.0407 37.0401 33.9356V35.0583ZM37.0401 28.8435C34.4056 28.9486 31.9499 29.6473 29.8076 30.5636C28.3198 31.1997 26.9851 31.9426 25.8476 32.6672V31.3508C26.8911 30.7185 28.0746 30.088 29.3689 29.533C31.6328 28.5633 34.2397 27.8259 37.0401 27.7208V28.8435ZM37.0401 22.6287C34.4056 22.7338 31.9499 23.4325 29.8076 24.3488C28.3198 24.9849 26.9851 25.7278 25.8476 26.4524V25.136C26.8911 24.5037 28.0746 23.8732 29.3689 23.3182C31.6328 22.3485 34.2397 21.611 37.0401 21.506V22.6287ZM18.1874 38.7861C17.083 38.0929 15.8017 37.3868 14.3803 36.7784C12.1975 35.8437 9.68647 35.1358 6.99479 35.0528V33.9319C9.85423 34.0149 12.5127 34.7615 14.8172 35.7479C16.0488 36.2751 17.1807 36.8725 18.1874 37.4735V38.7861ZM18.1874 32.5713C17.083 31.8781 15.8017 31.172 14.3803 30.5636C12.1975 29.6289 9.68647 28.921 6.99479 28.838V27.7171C9.85423 27.8 12.5127 28.5467 14.8172 29.533C16.0488 30.0603 17.1807 30.6576 18.1874 31.2587V32.5713ZM18.1874 26.3565C17.083 25.6633 15.8017 24.9572 14.3803 24.3488C12.1975 23.4141 9.68647 22.7061 6.99479 22.6232V21.5023C9.85423 21.5852 12.5127 22.3319 14.8172 23.3182C16.0488 23.8455 17.1807 24.4428 18.1874 25.0438V26.3565ZM20.9731 24.5387V21.6332C18.0638 19.3784 12.1256 15.6285 5.25811 16.1079L4.21094 16.1816V40.1522L5.40745 40.0693C13.0326 39.5383 19.4594 44.894 20.9749 46.2675V43.362V24.5387H20.9731Z" fill="white"/>
<path fill-rule="evenodd" clip-rule="evenodd" d="M34.5033 14.1589V10.7962L42.2391 7.50535L22.0902 0L1.94141 7.50535L9.67721 10.7962V14.1589C13.0565 14.6678 16.305 15.9417 19.2695 17.6839C20.184 18.2223 21.1518 18.8491 22.0884 19.5294C23.025 18.8491 23.9929 18.2204 24.9091 17.6839C27.8755 15.9417 31.1239 14.6678 34.5033 14.1589Z" fill="#F20F10"/>
</svg>
